<?xml version="1.0" encoding="UTF-8"?>
<svg id="Layer_1" xmlns="http://www.w3.org/2000/svg" xmlns:xlink="http://www.w3.org/1999/xlink" version="1.1" viewBox="0 0 383.6 608.8">
  <!-- Generator: Adobe Illustrator 30.3.0, SVG Export Plug-In . SVG Version: 2.1.3 Build 182)  -->
  <defs>
    <style>
      .st0 {
        stroke-dasharray: 2;
      }

      .st0, .st1, .st2 {
        fill: none;
        stroke: #189cd9;
      }

      .st0, .st2 {
        stroke-miterlimit: 10;
      }

      .st1 {
        stroke-linejoin: bevel;
      }

      .st3 {
        fill: #189cd9;
      }

      .st4 {
        clip-path: url(#clippath);
      }
    </style>
    <clipPath id="clippath">
      <rect class="st2" x="21.3" y="132.9" width="40.7" height="40.7" transform="translate(195 111.6) rotate(90)"/>
    </clipPath>
  </defs>
  <path class="st3" d="M249.9,518.2H110.1V135.2h131.4c21.5,0,40.8,2.2,57.2,6.5,16.4,4.3,30.5,10.9,41.7,19.6,11.3,8.7,19.9,19.6,25.5,32.5,5.6,12.9,8.5,28.1,8.5,45.2s-4.8,33.5-14.2,47.5c-9.3,13.8-23,24.6-40.7,32.3,20.2,5.7,36,16.3,47.1,31.5,11.3,15.5,17,34.3,17,56s-2.9,34-8.7,47.7c-5.7,13.8-14.5,25.6-26,35.3-11.5,9.6-25.7,16.9-42.1,21.7-16.4,4.8-35.6,7.2-57,7.2ZM110.8,517.5h139.1c21.3,0,40.4-2.4,56.8-7.2,16.4-4.8,30.4-12,41.8-21.6,11.4-9.5,20.1-21.3,25.8-35,5.7-13.7,8.6-29.6,8.6-47.5s-5.7-40.2-16.9-55.6c-11.2-15.3-27.2-25.9-47.7-31.5l-1-.3.9-.4c18.1-7.6,32-18.5,41.3-32.4,9.4-13.9,14.1-29.7,14.1-47.1s-2.8-32.1-8.4-45c-5.6-12.8-14.1-23.6-25.3-32.2-11.2-8.6-25.2-15.1-41.5-19.4-16.3-4.3-35.5-6.5-57-6.5H110.8v381.6ZM250.7,465.2h-74.1v-120.2h79.6c20.3.4,35.8,5.8,45.9,16,10.2,10.2,15.3,25.4,15.3,45.3s-6,33-17.7,43.3c-11.7,10.3-28.2,15.6-49.1,15.6ZM177.2,464.5h73.4c20.6,0,37-5.2,48.6-15.4,11.6-10.2,17.5-24.6,17.5-42.8s-5.1-34.7-15.1-44.8c-10-10-25.3-15.3-45.4-15.8h-78.9v118.8ZM242,296.9h-65.5v-108.1h64.9c22.7,0,39.7,4.3,50.5,12.7,10.8,8.4,16.3,22.3,16.3,41.2s-5.9,30.7-17.6,40.1c-11.6,9.4-28,14.1-48.7,14.1ZM177.2,296.2h64.8c20.5,0,36.7-4.7,48.2-14,11.5-9.2,17.3-22.5,17.3-39.5s-5.4-32.4-16-40.7c-10.7-8.3-27.5-12.5-50.1-12.5h-64.2v106.7Z"/>
  <path class="st0" d="M141.8,483.2V166.6"/>
  <path class="st0" d="M140.2,166.6,140.2,166.6h104.2c35.6,0,62.7,6.9,80.5,20.6,16.9,13,25.1,32.2,25.1,58.9s-3.4,24.5-10.4,34.9c-7.1,10.5-17.3,18.4-31.3,24.4l-36.3,15.3,38,10.3c15.6,4.2,27.3,11.9,35.7,23.3,8.5,11.7,12.6,25.4,12.6,42.2,0,28.3-8.6,49.2-26.2,64-18.1,15.1-45.1,22.8-80.2,22.8h-111.8"/>
  <path class="st3" d="M141.8,296.5l-1.7-3.1-1-1.8c-.2-.4.2-.9.6-.8s1.4.3,2.2.3c.8,0,1.5-.1,2.1-.3.5-.1.9.4.6.8s-.7,1.2-1,1.8l-1.8,3Z"/>
  <path class="st3" d="M207.3,166.7l-3.1,1.7-1.8,1c-.4.2-.9-.2-.8-.6s.3-1.4.3-2.2c0-.8-.1-1.5-.3-2.1-.1-.5.4-.9.8-.6s1.2.7,1.8,1l3,1.8Z"/>
  <path class="st3" d="M201.7,483.3l3.1-1.7,1.8-1c.4-.2.9.2.8.6s-.3,1.4-.3,2.2c0,.8.1,1.5.3,2.1.1.5-.4.9-.8.6s-1.2-.7-1.8-1l-3-1.8Z"/>
  <path class="st3" d="M349.8,248l-1.7-3.1-1-1.8c-.2-.4.2-.9.6-.8s1.4.3,2.2.3c.8,0,1.5-.1,2.1-.3.5-.1.9.4.6.8s-.7,1.2-1,1.8l-1.8,3Z"/>
  <path class="st3" d="M358.3,403.4l-1.7-3.1-1-1.8c-.2-.4.2-.9.6-.8s1.4.3,2.2.3c.8,0,1.5-.1,2.1-.3.5-.1.9.4.6.8s-.7,1.2-1,1.8l-1.8,3Z"/>
  <circle class="st3" cx="141.8" cy="166.6" r="2.5"/>
  <g>
    <g>
      <line class="st1" x1="193.8" y1="88.6" x2="153.1" y2="129.3"/>
      <line class="st1" x1="193.8" y1="88.6" x2="153.1" y2="129.3"/>
      <line class="st1" x1="193.8" y1="129.3" x2="153.1" y2="88.6"/>
      <line class="st1" x1="193.8" y1="129.3" x2="153.1" y2="88.6"/>
      <line class="st1" x1="153.1" y1="108.9" x2="193.8" y2="108.9"/>
      <line class="st1" x1="173.4" y1="129.3" x2="173.4" y2="88.6"/>
      <polyline class="st1" points="193.7 108.9 187.6 123.1 173.4 129.2"/>
      <polyline class="st1" points="173.4 88.7 179.5 102.9 193.7 108.9"/>
      <polyline class="st1" points="153.1 108.9 159.2 123.2 173.4 129.2"/>
      <polyline class="st1" points="173.3 88.7 167.3 102.9 153.1 108.9"/>
      <polyline class="st1" points="173.3 88.7 159.1 94.7 153.1 108.9"/>
      <polyline class="st1" points="193.6 109 179.4 115 173.4 129.2"/>
      <polyline class="st1" points="193.7 108.9 187.6 94.7 173.4 88.7"/>
      <polyline class="st1" points="173.4 129.2 167.3 115 153.1 109"/>
    </g>
    <rect class="st2" x="153.1" y="88.6" width="40.7" height="40.7" transform="translate(282.3 -64.5) rotate(90)"/>
  </g>
  <rect class="st2" x="21.3" y="132.9" width="40.7" height="40.7" transform="translate(195 111.6) rotate(90)"/>
  <g>
    <rect class="st2" x="109.2" y="88.6" width="40.7" height="40.7" transform="translate(238.4 -20.6) rotate(90)"/>
    <line class="st2" x1="149.9" y1="108.9" x2="109.2" y2="108.9"/>
    <polygon class="st2" points="120.5 124.5 138.5 124.5 147.5 108.9 138.5 93.3 120.5 93.3 111.5 108.9 120.5 124.5"/>
    <polygon class="st2" points="124.1 118.3 134.9 118.3 140.4 108.9 134.9 99.5 124.1 99.5 118.7 108.9 124.1 118.3"/>
  </g>
  <g>
    <rect class="st2" x="65.3" y="88.6" width="40.7" height="40.7" transform="translate(194.5 23.3) rotate(90)"/>
    <line class="st2" x1="106" y1="93.3" x2="65.3" y2="93.3"/>
    <line class="st2" x1="106" y1="97.9" x2="65.3" y2="97.9"/>
    <line class="st2" x1="106" y1="119.8" x2="65.3" y2="119.8"/>
    <line class="st2" x1="106" y1="124.5" x2="65.3" y2="124.5"/>
    <line class="st2" x1="70" y1="88.5" x2="70" y2="129.3"/>
    <line class="st2" x1="74.7" y1="88.5" x2="74.7" y2="129.3"/>
    <line class="st2" x1="96.6" y1="88.5" x2="96.6" y2="129.3"/>
    <line class="st2" x1="101.2" y1="88.5" x2="101.2" y2="129.3"/>
  </g>
  <g>
    <rect class="st2" x="65.3" y="132.9" width="40.7" height="40.7" transform="translate(238.9 67.7) rotate(90)"/>
    <g>
      <polyline class="st2" points="70.1 138.1 78.5 138.1 81.6 141.2 78.5 144.2 70.2 144.2"/>
      <polyline class="st2" points="76.6 138.1 68.2 138.1 65.1 141.2 68.2 144.2 76.5 144.2"/>
      <polyline class="st2" points="70.3 144.4 70.3 136 73.4 132.9 76.4 136 76.4 144.3"/>
      <polyline class="st2" points="70.3 137.9 70.3 146.3 73.4 149.4 76.4 146.3 76.4 138"/>
    </g>
    <g>
      <polyline class="st2" points="70.1 162.3 78.5 162.3 81.6 165.4 78.5 168.5 70.2 168.5"/>
      <polyline class="st2" points="76.6 162.3 68.2 162.3 65.1 165.4 68.2 168.5 76.5 168.5"/>
      <polyline class="st2" points="70.3 168.7 70.3 160.2 73.4 157.2 76.4 160.2 76.4 168.5"/>
      <polyline class="st2" points="70.3 162.1 70.3 170.6 73.4 173.6 76.4 170.6 76.4 162.3"/>
    </g>
    <g>
      <polyline class="st2" points="94.3 138.1 102.8 138.1 105.8 141.2 102.8 144.2 94.5 144.2"/>
      <polyline class="st2" points="100.9 138.1 92.4 138.1 89.4 141.2 92.4 144.2 100.7 144.2"/>
      <polyline class="st2" points="94.5 144.4 94.5 136 97.6 132.9 100.7 136 100.7 144.3"/>
      <polyline class="st2" points="94.5 137.9 94.5 146.3 97.6 149.4 100.7 146.3 100.7 138"/>
    </g>
    <g>
      <polyline class="st2" points="94.3 162.3 102.8 162.3 105.8 165.4 102.8 168.5 94.5 168.5"/>
      <polyline class="st2" points="100.9 162.3 92.4 162.3 89.4 165.4 92.4 168.5 100.7 168.5"/>
      <polyline class="st2" points="94.5 168.7 94.5 160.2 97.6 157.2 100.7 160.2 100.7 168.5"/>
      <polyline class="st2" points="94.5 162.1 94.5 170.6 97.6 173.6 100.7 170.6 100.7 162.3"/>
    </g>
    <polygon class="st2" points="88.5 160.3 92.6 160.3 92.6 156.2 95.5 153.3 92.6 150.4 92.6 146.3 88.5 146.3 85.6 143.4 82.7 146.3 78.6 146.3 78.6 146.3 78.6 150.4 75.7 153.3 78.6 156.2 78.6 160.3 82.7 160.3 85.6 163.2 88.5 160.3"/>
  </g>
  <g>
    <rect class="st2" x="65.3" y="177.3" width="40.7" height="40.7" transform="translate(283.2 112) rotate(90)"/>
    <g>
      <polyline class="st2" points="81.1 197.8 87.1 191.7 91.5 191.7 91.5 196.1 85.6 202.1"/>
      <polyline class="st2" points="85.8 193.1 79.7 199.1 79.7 203.5 84.1 203.5 90.1 197.6"/>
      <polyline class="st2" points="85.8 202.2 79.7 196.1 79.7 191.7 84.1 191.7 90.1 197.7"/>
      <polyline class="st2" points="81.1 197.5 87.1 203.5 91.5 203.5 91.5 199.1 85.6 193.2"/>
    </g>
    <line class="st2" x1="106" y1="197.6" x2="90" y2="197.6"/>
    <line class="st2" x1="81.2" y1="197.6" x2="65.2" y2="197.6"/>
    <line class="st2" x1="106" y1="199" x2="91.4" y2="199"/>
    <line class="st2" x1="106" y1="196.1" x2="91.4" y2="196.1"/>
    <line class="st2" x1="79.8" y1="199" x2="65.3" y2="199"/>
    <line class="st2" x1="79.8" y1="196.1" x2="65.3" y2="196.1"/>
    <line class="st2" x1="85.6" y1="177.2" x2="85.6" y2="193.2"/>
    <line class="st2" x1="85.6" y1="201.9" x2="85.6" y2="217.9"/>
    <line class="st2" x1="87.1" y1="177.2" x2="87.1" y2="191.8"/>
    <line class="st2" x1="84.2" y1="177.2" x2="84.2" y2="191.8"/>
    <line class="st2" x1="87.1" y1="203.4" x2="87.1" y2="217.9"/>
    <line class="st2" x1="84.2" y1="203.4" x2="84.2" y2="217.9"/>
    <rect class="st2" x="91.5" y="177.3" width="14.4" height="14.4" transform="translate(283.2 85.8) rotate(90)"/>
    <rect class="st2" x="91.5" y="203.5" width="14.4" height="14.4" transform="translate(309.5 112) rotate(90)"/>
    <rect class="st2" x="65.3" y="177.3" width="14.4" height="14.4" transform="translate(257 112) rotate(90)"/>
    <rect class="st2" x="65.3" y="203.5" width="14.4" height="14.4" transform="translate(283.2 138.3) rotate(90)"/>
  </g>
  <g>
    <rect class="st2" x="21.3" y="88.6" width="40.7" height="40.7" transform="translate(150.6 67.2) rotate(90)"/>
    <rect class="st2" x="38.9" y="99.3" width="19.2" height="19.2" transform="translate(159.8 151.7) rotate(135)"/>
    <rect class="st2" x="25.3" y="99.3" width="19.2" height="19.2" transform="translate(136.6 161.3) rotate(135)"/>
    <rect class="st2" x="32.1" y="92.5" width="19.2" height="19.2" transform="translate(84.4 .4) rotate(45)"/>
    <rect class="st2" x="32.1" y="106.1" width="19.2" height="19.2" transform="translate(94 4.4) rotate(45)"/>
  </g>
  <g>
    <g class="st4">
      <g>
        <g>
          <rect class="st2" x="59.9" y="171.5" width="4.3" height="4.3" transform="translate(-104.7 94.7) rotate(-45)"/>
          <rect class="st2" x="58.1" y="169.8" width="7.8" height="7.8" transform="translate(-104.7 94.7) rotate(-45)"/>
          <rect class="st2" x="56.3" y="168" width="11.3" height="11.3" transform="translate(-104.7 94.7) rotate(-45)"/>
          <rect class="st2" x="54.6" y="166.3" width="14.9" height="14.9" transform="translate(-104.7 94.7) rotate(-45)"/>
          <rect class="st2" x="52.8" y="164.5" width="18.4" height="18.4" transform="translate(-104.7 94.7) rotate(-45)"/>
          <rect class="st2" x="51.1" y="162.7" width="21.9" height="21.9" transform="translate(-104.7 94.7) rotate(-45)"/>
          <rect class="st2" x="49.3" y="161" width="25.4" height="25.4" transform="translate(-104.7 94.7) rotate(-45)"/>
          <rect class="st2" x="47.5" y="159.2" width="29" height="29" transform="translate(-104.7 94.7) rotate(-45)"/>
        </g>
        <g>
          <rect class="st2" x="59.9" y="130.8" width="4.3" height="4.3" transform="translate(-75.9 82.8) rotate(-45)"/>
          <rect class="st2" x="58.1" y="129.1" width="7.8" height="7.8" transform="translate(-75.9 82.8) rotate(-45)"/>
          <rect class="st2" x="56.3" y="127.3" width="11.3" height="11.3" transform="translate(-75.9 82.8) rotate(-45)"/>
          <rect class="st2" x="54.6" y="125.5" width="14.9" height="14.9" transform="translate(-75.9 82.8) rotate(-45)"/>
          <rect class="st2" x="52.8" y="123.8" width="18.4" height="18.4" transform="translate(-75.9 82.8) rotate(-45)"/>
          <rect class="st2" x="51.1" y="122" width="21.9" height="21.9" transform="translate(-75.9 82.8) rotate(-45)"/>
          <rect class="st2" x="49.3" y="120.3" width="25.4" height="25.4" transform="translate(-75.9 82.8) rotate(-45)"/>
          <rect class="st2" x="47.5" y="118.5" width="29" height="29" transform="translate(-75.9 82.8) rotate(-45)"/>
        </g>
        <g>
          <rect class="st2" x="19" y="171.5" width="4.3" height="4.3" transform="translate(-116.6 65.9) rotate(-45)"/>
          <rect class="st2" x="17.3" y="169.8" width="7.8" height="7.8" transform="translate(-116.6 65.9) rotate(-45)"/>
          <rect class="st2" x="15.5" y="168" width="11.3" height="11.3" transform="translate(-116.6 65.9) rotate(-45)"/>
          <rect class="st2" x="13.7" y="166.3" width="14.9" height="14.9" transform="translate(-116.6 65.9) rotate(-45)"/>
          <rect class="st2" x="12" y="164.5" width="18.4" height="18.4" transform="translate(-116.6 65.9) rotate(-45)"/>
          <rect class="st2" x="10.2" y="162.7" width="21.9" height="21.9" transform="translate(-116.6 65.9) rotate(-45)"/>
          <rect class="st2" x="8.5" y="161" width="25.4" height="25.4" transform="translate(-116.6 65.9) rotate(-45)"/>
          <rect class="st2" x="6.7" y="159.2" width="29" height="29" transform="translate(-116.6 65.9) rotate(-45)"/>
        </g>
        <g>
          <rect class="st2" x="19" y="130.8" width="4.3" height="4.3" transform="translate(-87.8 53.9) rotate(-45)"/>
          <rect class="st2" x="17.3" y="129.1" width="7.8" height="7.8" transform="translate(-87.8 53.9) rotate(-45)"/>
          <rect class="st2" x="15.5" y="127.3" width="11.3" height="11.3" transform="translate(-87.8 53.9) rotate(-45)"/>
          <rect class="st2" x="13.7" y="125.5" width="14.9" height="14.9" transform="translate(-87.8 53.9) rotate(-45)"/>
          <rect class="st2" x="12" y="123.8" width="18.4" height="18.4" transform="translate(-87.8 53.9) rotate(-45)"/>
          <rect class="st2" x="10.2" y="122" width="21.9" height="21.9" transform="translate(-87.8 53.9) rotate(-45)"/>
          <rect class="st2" x="8.5" y="120.3" width="25.4" height="25.4" transform="translate(-87.8 53.9) rotate(-45)"/>
          <rect class="st2" x="6.7" y="118.5" width="29" height="29" transform="translate(-87.8 53.9) rotate(-45)"/>
        </g>
      </g>
    </g>
    <rect class="st2" x="21.3" y="132.9" width="40.7" height="40.7" transform="translate(195 111.6) rotate(90)"/>
  </g>
  <g>
    <g>
      <line class="st1" x1="63.1" y1="435.6" x2="103.8" y2="476.3"/>
      <line class="st1" x1="63.1" y1="435.6" x2="103.8" y2="476.3"/>
      <line class="st1" x1="103.8" y1="435.6" x2="63.1" y2="476.3"/>
      <line class="st1" x1="103.8" y1="435.6" x2="63.1" y2="476.3"/>
      <line class="st1" x1="83.5" y1="476.3" x2="83.5" y2="435.6"/>
      <line class="st1" x1="103.8" y1="456" x2="63.1" y2="456"/>
      <polyline class="st1" points="83.4 435.7 97.7 441.8 103.7 456"/>
      <polyline class="st1" points="63.2 456 77.4 449.9 83.5 435.7"/>
      <polyline class="st1" points="83.5 476.2 97.7 470.2 103.7 456"/>
      <polyline class="st1" points="63.2 456.1 77.4 462.1 83.5 476.3"/>
      <polyline class="st1" points="63.2 456.1 69.2 470.3 83.5 476.3"/>
      <polyline class="st1" points="83.5 435.7 89.6 450 103.8 456"/>
      <polyline class="st1" points="83.5 435.7 69.2 441.8 63.2 456"/>
      <polyline class="st1" points="103.8 456 89.5 462.1 83.5 476.3"/>
    </g>
    <rect class="st2" x="63.1" y="435.6" width="40.7" height="40.7"/>
  </g>
  <g>
    <g>
      <line class="st1" x1="21.3" y1=".5" x2="62" y2="41.2"/>
      <line class="st1" x1="21.3" y1=".5" x2="62" y2="41.2"/>
      <line class="st1" x1="62" y1=".5" x2="21.3" y2="41.2"/>
      <line class="st1" x1="62" y1=".5" x2="21.3" y2="41.2"/>
      <line class="st1" x1="41.7" y1="41.2" x2="41.7" y2=".5"/>
      <line class="st1" x1="62" y1="20.9" x2="21.3" y2="20.9"/>
      <polyline class="st1" points="41.7 .6 55.9 6.7 61.9 20.9"/>
      <polyline class="st1" points="21.4 20.9 35.6 14.8 41.7 .6"/>
      <polyline class="st1" points="41.7 41.1 55.9 35.1 62 20.9"/>
      <polyline class="st1" points="21.4 20.9 35.6 27 41.7 41.2"/>
      <polyline class="st1" points="21.4 20.9 27.5 35.2 41.7 41.2"/>
      <polyline class="st1" points="41.7 .6 47.8 14.9 62 20.9"/>
      <polyline class="st1" points="41.7 .6 27.5 6.7 21.4 20.9"/>
      <polyline class="st1" points="62 20.9 47.8 27 41.7 41.2"/>
    </g>
    <rect class="st2" x="21.3" y=".5" width="40.7" height="40.7"/>
  </g>
  <g>
    <rect class="st2" x="63.1" y="479.5" width="40.7" height="40.7"/>
    <line class="st2" x1="83.4" y1="479.5" x2="83.4" y2="520.2"/>
    <polygon class="st2" points="99 508.9 99 490.9 83.4 481.9 67.8 490.9 67.8 508.9 83.4 517.9 99 508.9"/>
    <polygon class="st2" points="92.8 505.3 92.8 494.4 83.4 489 74 494.4 74 505.3 83.4 510.7 92.8 505.3"/>
  </g>
  <g>
    <rect class="st2" x="107.5" y="523.4" width="40.7" height="40.7"/>
    <g>
      <polyline class="st2" points="112.6 559.3 112.6 550.8 115.7 547.8 118.8 550.8 118.8 559.1"/>
      <polyline class="st2" points="112.6 552.7 112.6 561.2 115.7 564.2 118.8 561.2 118.8 552.9"/>
      <polyline class="st2" points="119 559.1 110.5 559.1 107.5 556 110.5 552.9 118.8 552.9"/>
      <polyline class="st2" points="112.4 559.1 120.9 559.1 123.9 556 120.9 552.9 112.6 552.9"/>
    </g>
    <g>
      <polyline class="st2" points="136.9 559.3 136.9 550.8 139.9 547.8 143 550.8 143 559.1"/>
      <polyline class="st2" points="136.9 552.7 136.9 561.2 139.9 564.2 143 561.2 143 552.9"/>
      <polyline class="st2" points="143.2 559.1 134.8 559.1 131.7 556 134.8 552.9 143.1 552.9"/>
      <polyline class="st2" points="136.6 559.1 145.1 559.1 148.2 556 145.1 552.9 136.8 552.9"/>
    </g>
    <g>
      <polyline class="st2" points="112.6 535 112.6 526.6 115.7 523.5 118.8 526.6 118.8 534.9"/>
      <polyline class="st2" points="112.6 528.5 112.6 536.9 115.7 540 118.8 536.9 118.8 528.6"/>
      <polyline class="st2" points="119 534.8 110.5 534.8 107.5 531.8 110.5 528.7 118.8 528.7"/>
      <polyline class="st2" points="112.4 534.8 120.9 534.8 123.9 531.8 120.9 528.7 112.6 528.7"/>
    </g>
    <g>
      <polyline class="st2" points="136.9 535 136.9 526.6 139.9 523.5 143 526.6 143 534.9"/>
      <polyline class="st2" points="136.9 528.5 136.9 536.9 139.9 540 143 536.9 143 528.6"/>
      <polyline class="st2" points="143.2 534.8 134.8 534.8 131.7 531.8 134.8 528.7 143.1 528.7"/>
      <polyline class="st2" points="136.6 534.8 145.1 534.8 148.2 531.8 145.1 528.7 136.8 528.7"/>
    </g>
    <polygon class="st2" points="134.8 540.9 134.8 536.8 130.7 536.8 127.8 533.9 124.9 536.8 120.8 536.8 120.8 540.9 117.9 543.8 120.8 546.7 120.8 550.8 120.8 550.8 124.9 550.8 127.8 553.7 130.7 550.8 134.8 550.8 134.8 546.7 137.7 543.8 134.8 540.9"/>
  </g>
  <g>
    <rect class="st2" x="151.8" y="523.4" width="40.7" height="40.7"/>
    <g>
      <polyline class="st2" points="172.3 548.3 166.3 542.3 166.3 537.9 170.7 537.9 176.6 543.8"/>
      <polyline class="st2" points="167.6 543.6 173.7 549.7 178.1 549.7 178.1 545.3 172.1 539.3"/>
      <polyline class="st2" points="176.7 543.6 170.7 549.7 166.3 549.7 166.3 545.3 172.2 539.3"/>
      <polyline class="st2" points="172 548.3 178.1 542.3 178.1 537.9 173.7 537.9 167.7 543.8"/>
    </g>
    <line class="st2" x1="172.1" y1="523.4" x2="172.1" y2="539.4"/>
    <line class="st2" x1="172.1" y1="548.2" x2="172.1" y2="564.1"/>
    <line class="st2" x1="173.6" y1="523.4" x2="173.6" y2="537.9"/>
    <line class="st2" x1="170.7" y1="523.4" x2="170.7" y2="537.9"/>
    <line class="st2" x1="173.6" y1="549.6" x2="173.6" y2="564.1"/>
    <line class="st2" x1="170.7" y1="549.6" x2="170.7" y2="564.1"/>
    <line class="st2" x1="151.8" y1="543.8" x2="167.8" y2="543.8"/>
    <line class="st2" x1="176.5" y1="543.8" x2="192.5" y2="543.8"/>
    <line class="st2" x1="151.8" y1="542.3" x2="166.3" y2="542.3"/>
    <line class="st2" x1="151.8" y1="545.2" x2="166.3" y2="545.2"/>
    <line class="st2" x1="177.9" y1="542.3" x2="192.5" y2="542.3"/>
    <line class="st2" x1="177.9" y1="545.2" x2="192.5" y2="545.2"/>
    <rect class="st2" x="151.8" y="523.4" width="14.4" height="14.4"/>
    <rect class="st2" x="178.1" y="523.4" width="14.4" height="14.4"/>
    <rect class="st2" x="151.8" y="549.7" width="14.4" height="14.4"/>
    <rect class="st2" x="178.1" y="549.7" width="14.4" height="14.4"/>
  </g>
  <g>
    <rect class="st2" x="19.6" y="567.3" width="40.7" height="40.7"/>
    <rect class="st2" x="30.4" y="571.3" width="19.2" height="19.2" transform="translate(422.5 141.9) rotate(45)"/>
    <rect class="st2" x="30.4" y="584.9" width="19.2" height="19.2" transform="translate(432.1 145.8) rotate(45)"/>
    <rect class="st2" x="23.6" y="578.1" width="19.2" height="19.2" transform="translate(-405.8 195.6) rotate(-45)"/>
    <rect class="st2" x="37.2" y="578.1" width="19.2" height="19.2" transform="translate(-401.9 205.2) rotate(-45)"/>
  </g>
</svg>