<?xml version="1.0" encoding="UTF-8"?>
<svg id="Layer_1" xmlns="http://www.w3.org/2000/svg" version="1.1" viewBox="0 0 74.3 85">
  <!-- Generator: Adobe Illustrator 30.3.0, SVG Export Plug-In . SVG Version: 2.1.3 Build 182)  -->
  <defs>
    <style>
      .st0 {
        fill: none;
        fill-rule: evenodd;
        stroke: #425465;
        stroke-linecap: round;
        stroke-linejoin: round;
        stroke-width: .2px;
      }
    </style>
  </defs>
  <polygon class="st0" points="49.2 .1 50.6 .8 50.9 .8 51.2 .7 51.3 .6 52 1.1 52.3 1 52.7 .9 52.9 .7 53 .6 53.1 .6 53.2 .6 53.3 .7 53.3 .8 53.3 .9 53.3 1 53.2 1.1 53.1 1.2 53.1 1.3 53.1 1.3 53.2 1.5 53.2 1.7 53.2 1.8 53.2 1.9 53.2 1.9 53.2 2 53.1 2.1 53.1 2.1 53.1 2.3 53.1 2.4 53.1 2.6 53.1 2.7 53.1 2.7 53 2.8 52.9 2.9 52.9 2.9 52.9 3.1 52.9 3.2 52.9 3.3 52.7 3.7 52.7 3.7 52.7 3.8 52.7 3.9 52.7 3.9 52.8 4 53 4.1 53.3 4.2 53.6 4.3 53.8 4.2 53.9 4.1 53.9 4.1 53.9 4 53.9 3.7 54 3.6 54 3.5 54.1 3.5 54.3 3.3 54.4 3.3 54.5 3 54.5 3 54.6 3 54.6 3 54.7 3 54.7 3.2 54.7 3.4 54.7 3.5 54.7 3.6 55 4.2 55 4.2 55.1 4.3 55.2 4.2 55.3 4.1 55.4 3.9 55.9 3.4 56 3.4 56 3.3 56.1 3.2 56.5 3.1 56.7 2.9 56.8 3 56.8 3 57 3.3 57.7 4.1 57.7 4.2 57.7 4.3 57.8 4.5 57.7 5.3 57.8 5.6 57.8 5.7 57.8 5.7 57.9 5.9 58.8 6.8 58.9 7 58.9 7.1 59 7.2 59 7.2 58.9 7.3 58.9 7.4 58.9 7.4 58.9 7.5 58.7 7.7 58.4 8.1 58.4 8.2 58.4 8.3 58.4 8.4 58.4 8.6 58.4 8.7 58.4 8.8 58.4 8.9 58.3 9 58 9.4 57.9 9.5 57.9 9.6 57.9 9.7 58.1 9.8 58.3 9.8 58.5 9.7 58.6 9.6 58.6 9.4 58.7 9.2 58.7 9.1 58.8 9 58.9 9 59.1 8.9 59.1 8.9 59.2 8.8 59.2 8.7 59.4 8.5 59.4 8.5 59.5 8.4 59.6 8.4 59.7 8.4 59.8 8.5 59.9 8.6 59.9 8.7 59.9 8.8 59.8 8.9 59.7 8.9 59.7 9 59.7 9 59.7 9.1 60 9.3 60.1 9.4 60.1 9.5 60.2 10 60.2 10.3 60.2 10.5 60.2 10.7 60.2 10.9 60.2 11 60.2 11.2 60.3 11.9 60.3 12 60.3 12.1 60.3 12.1 60.4 12.2 60.6 12.2 62.4 12.2 62.6 12.1 62.8 11.9 63.5 11.1 63.6 11 63.5 10.8 63.5 10.7 63.5 10.6 63.4 10.6 63.4 10.5 63.4 10.5 63.3 10.4 63.3 10.4 63.4 10.2 64 9.7 64.2 9.8 64.3 9.9 64.4 10 64.4 10 64.4 10.1 64.3 10.3 64.3 10.4 64.3 10.4 64.3 10.5 64.3 10.6 64.3 10.7 64.5 10.8 64.6 10.8 64.7 10.9 64.7 10.9 64.8 10.9 64.9 10.9 64.9 10.9 65 11 65.1 11.1 65.1 11.2 65 11.4 64.9 11.7 64.9 11.7 64.9 11.9 65.2 12.5 65 13.1 64.9 13.3 64.7 13.5 64.7 13.5 64.7 13.6 64.7 13.7 65.2 13.9 65.3 13.9 65.4 14 65.4 14.1 66.1 15.8 66.1 15.9 66.1 16 65.9 15.9 65.8 15.9 65.6 15.8 65.5 15.8 65.3 15.9 64.9 16.4 64.9 17.1 64.8 17.2 64.8 17.4 64.9 17.7 65.1 18 65.3 18.2 65.4 18.2 65.5 18.2 65.6 18.2 65.6 18.3 65.7 18.3 65.7 18.4 65.7 18.5 65.5 19.1 65.5 19.2 65.6 19.4 65.8 19.8 65.8 20 65.8 20.2 65.8 20.3 65.7 20.3 65.6 20.3 65.4 20.2 65.3 20.2 65.2 20.1 65.1 20.1 65.1 20.1 65 20.2 65 20.3 65 20.4 65.1 20.5 65.4 20.9 65.5 20.9 65.5 21.1 65.5 21.4 65.5 21.5 65.5 21.7 65.5 21.9 65.6 22 65.8 22.2 65.8 22.3 65.9 22.4 65.8 22.5 65.8 22.5 65.7 22.5 65.6 22.6 65.6 22.6 65.5 22.6 65.5 22.7 65.6 22.8 65.8 23 66.3 23.3 66.4 23.4 66.5 23.5 67 24.2 67.3 24.5 67.4 24.5 67.4 24.5 67.7 24.3 67.8 24.3 67.8 24.3 67.9 24.3 67.9 24.3 68 24.4 68.4 24.7 68.4 24.8 68.4 24.9 68.5 25.2 68.4 25.6 68.4 25.8 68.3 25.9 68.3 25.9 68.3 26 68.2 26 68.2 26.2 68.2 26.3 68.1 26.3 68.1 26.3 68 26.4 67.9 26.4 67.8 26.4 67.7 26.4 67.7 26.4 67.6 26.4 67.6 26.4 67.6 26.5 67.6 26.6 67.7 26.6 68 26.8 68.2 26.9 68.3 26.9 68.4 26.9 68.4 27 68.4 27.1 68.3 27.3 68.3 27.3 68.3 27.4 68.4 27.5 68.8 27.9 68.8 28.1 68.8 28.2 68.7 28.3 68.7 28.4 68.7 28.4 68.7 28.5 68.8 28.5 68.9 28.6 69.3 28.8 69.5 28.8 69.6 28.8 69.7 28.8 69.8 28.8 70.2 29.1 70.3 29.1 70.4 29.1 70.7 29.1 70.7 29.2 70.8 29.3 70.9 29.6 71 30 71.1 30.2 72.2 31 72.4 31.4 72.7 31.8 72.7 31.8 72.8 31.9 72.8 31.9 72.8 32 72.9 32.3 73 32.4 73.1 32.5 73.2 32.6 73.3 32.7 73.3 32.8 73.4 33 73.5 33.3 73.5 33.5 73.5 33.6 73.4 33.7 73.3 33.7 73 33.8 72.9 33.9 72.9 33.9 72.9 34 73.1 34.1 73.2 34.2 73.2 34.4 73.2 34.6 73.1 35.6 73.1 35.7 73.1 35.7 73 36 73 36 73 36.1 73 36.2 73.2 36.5 73.2 36.6 73.3 36.6 73.3 36.8 73.3 36.9 73.2 37.2 73.1 37.4 73.1 37.5 73.1 37.5 72.9 37.7 72.8 37.7 72.8 37.9 72.8 38.1 72.8 38.6 72.8 38.8 72.8 39 72.7 39 72.7 39.1 72.6 39.1 72.6 39.2 72.6 39.3 72.6 39.4 72.6 39.6 72.6 39.8 72.6 39.8 72.6 39.9 72.8 40.1 73.3 40.3 73.5 40.3 73.5 40.3 73.6 40.4 73.7 40.6 73.7 40.8 74.2 41.7 73.1 42.7 72.8 42.9 72.7 42.8 72.7 42.8 72.6 42.7 72.6 42.7 72.6 42.6 72.6 42.5 72.6 42.4 72.6 42.3 72.7 42.1 72.7 42 72.7 41.9 72.7 41.8 72.8 41.8 72.9 41.7 72.9 41.7 72.8 41.6 72.8 41.5 72.7 41.5 72.6 41.5 72.4 41.6 71.3 42.9 71.2 43 71.1 43 71.1 43 71 42.9 70.9 42.6 70.7 42.2 70.6 42.1 70.5 42 70 42.1 69.8 42 69.7 42 69.6 41.9 69.4 41.6 69.3 41.5 69.2 41.5 69.1 41.7 68.9 42 68.7 42.3 68.6 42.3 68.6 42.4 68.6 42.8 68.7 43.1 68.8 43.2 68.8 43.3 68.9 43.3 68.9 43.4 69 43.6 69 43.6 69.1 43.7 69.2 43.8 69.3 43.8 69.4 43.9 69.6 44 69.7 44.2 69.8 44.3 70 44.4 70.1 44.5 70.1 44.5 70.2 44.6 70.2 44.8 70 44.9 70 44.9 69.8 45 69.6 45.1 69.6 45.1 69.6 45.2 69.6 45.4 69.6 45.5 69.7 45.6 69.7 45.7 69.8 45.9 69.9 46 69.9 46.2 69.9 46.4 69.9 46.6 69.9 46.8 69.6 47.5 69.6 47.7 69.6 47.7 69.6 47.8 69.7 47.8 69.8 47.9 69.8 47.9 69.8 48 69.7 48 68.7 48 68.5 48.1 68.5 48.1 68.4 48.2 68.2 48.4 68.2 48.5 68.2 48.5 68.1 48.9 65.7 50.4 65.6 50.4 65.5 50.4 65.5 50.3 65.4 50.3 65.4 50.2 65.4 50.2 65.4 49.9 65.3 49.8 65.3 49.8 65.3 49.7 65.2 49.6 65.1 49.6 65.1 49.6 65 49.6 64.9 49.6 64.6 49.8 64.4 50 64.3 50 63.9 50.1 63.6 50.2 63.5 50.2 63.3 50.3 63.1 50.5 63 50.7 62.9 51 62.9 51.1 62.9 51.3 63 51.5 62.8 51.6 61.4 53.6 61.6 54 61.8 54 61.8 54 61.9 54 61.9 54 61.9 54 62 54 62 54.1 62.4 55.1 62.8 55.7 63.1 56.2 63.2 56.4 63.6 57.7 64.6 62.2 65.3 63.7 65.3 64.2 65.4 64.6 65.3 65.6 65.1 66.4 64.4 68.5 64.2 68.6 64.1 68.6 64.1 68.7 64 68.8 64 69 64 69.2 64.2 69.6 64.3 69.7 64.6 70 64.6 70.2 64.6 71 64.6 71.3 64.5 71.5 64.4 71.7 64.4 71.8 64.3 72.2 64.3 72.3 64.2 72.4 64.2 72.5 64.1 72.5 64.1 72.5 64 72.6 64 72.7 64 72.7 64.1 72.8 64.2 72.8 64.2 72.8 64.3 72.8 64.3 72.8 64.4 72.8 64.4 72.8 64.4 72.8 64.5 72.9 64.5 73.1 64.6 73.4 65.1 74.5 64.9 74.6 64.9 74.6 64.9 74.6 64.8 74.7 64.8 74.7 64.7 74.9 64.7 75 64.6 75 64.2 75 64.1 75 64 75.1 64 75.1 63.9 75.3 63.8 75.5 63.9 75.6 64 75.7 64.2 75.9 64.3 76 64.3 76.2 64.4 76.2 64.5 76.3 64.7 76.3 64.7 76.3 64.8 76.4 64.8 76.5 64.8 76.6 64.8 77.7 64.9 78.4 65 78.7 65.1 79 65.1 79.1 65.1 79.2 65.1 79.4 65.1 79.5 65 79.6 65 79.7 64.9 79.7 64.7 79.7 64.2 79.5 64.2 79.5 64.1 79.5 64.1 79.6 64 79.8 64 80.3 63.8 80.6 63.6 80.3 63.5 80.1 63.4 79.7 63.3 79.6 63.2 79.5 63 79.5 62.7 79.5 62.1 79.7 61.6 80 61.1 80.2 60.7 80.3 60.1 80.3 59.5 80.1 58.7 79.8 58.5 79.7 58.2 79.8 57.8 80.1 55.9 81.7 54.8 82.3 54.1 82 53.9 82 53.5 82.2 53.5 82.4 53.4 82.5 53.4 82.5 53.3 82.6 53.1 82.7 52.4 82.8 52.3 82.9 52.3 82.9 52 83.3 50.8 84.9 50.8 84.9 50.7 84.9 50.6 84.8 43.8 80.6 42.9 80.4 41.9 80.4 41.6 79.8 40.2 79.8 37.5 79.5 37 79.7 36.6 80.2 35.7 80.4 34.7 80.5 34.1 80.4 33.4 79.8 33 79.5 33 79.2 33 79.2 33.5 79.1 33.5 79.1 32.8 78.5 32 78 31.4 78 31.1 78.7 31.1 78.7 31.3 78.9 31.3 78.9 30 79 30 78.7 29.9 78.4 29.7 78.2 29.6 77.9 29.6 77.9 29.7 77.7 30 77.2 30.1 77 30.1 77 29.9 76.6 29.7 76.6 29.4 76.7 29.2 76.6 29 76.3 28.8 75.9 28.5 75.5 28.2 75.4 28 75.6 27.9 76.5 27.6 76.6 27.3 76.5 27.2 76 27.2 75.5 27.2 75.3 26.7 75.1 26.1 75 25.7 75.3 25.7 75.3 25.9 75.8 25.9 75.8 25.6 76 24.2 76.3 23.9 76.3 23.7 76.4 23.4 76.9 23.3 77.2 23.1 77.9 22.8 78.2 22.2 78.5 22 78.8 21.9 79 21.9 79.1 22 79.3 22.1 79.6 22.1 79.6 22 80 22 80 22.3 80.2 22.5 80.2 23.1 80.7 23.6 81 24.1 81 24.4 80.8 24.8 80.5 25.1 80.3 26.3 80.1 26.7 80.2 27 80.3 27.1 80.3 27.3 80.4 27.3 80.4 27.2 81.2 27 81.2 27 80.9 27 80.9 26.9 80.9 26.7 80.9 26.6 81 26.6 81.2 26.6 81.2 26.6 81.4 26.7 81.5 26.7 81.6 26.7 81.6 26.7 81.9 26.7 81.9 26.7 82.2 26.7 82.2 26.6 82.4 26.5 82.7 26.2 82.8 25.9 82.5 25.6 82 25.2 81.6 24.5 81.7 23.7 82.2 23.4 82.8 23.4 83 22.6 83.1 21 83.1 20.1 82.9 19.8 82.7 19.7 82.4 19.5 82 19.4 81.9 19.1 81.8 18.5 81.6 18 81.6 16.7 81.9 16.6 81.9 16.4 82.1 16.3 82.3 15.8 82.4 15.3 82.7 15.1 82.9 14.9 83.1 14.8 83.3 14.6 83.5 14.4 83.6 13.3 83.9 10.1 83.9 10 83.7 9.9 83.4 9.9 83 9.7 82.9 8.1 82.8 7.8 82.6 7.3 83.3 6.9 83.8 6.4 84 4.4 84.5 3.8 84.4 2.6 83.7 2.6 83.7 3.2 83.7 3.5 83.5 3.8 82.6 3.8 82.6 3.2 82.6 2 83 2 83 2.1 82.6 2.1 82.5 2.1 82.5 2.1 82.1 1.9 81.9 1.8 81.8 1.6 81.6 1.1 80.5 .7 80 .4 79.8 .3 79.7 .2 79.3 .1 78.5 .1 78.5 .2 78.3 .6 77.8 .8 77.6 .8 77 .8 77 .5 75.7 .5 75.7 .5 75.2 .9 74 1 73.8 1.4 73.6 1.4 73.2 1.4 73.2 1.3 72.5 1.3 72.5 1.3 72.4 1.3 72.4 1.3 72.3 1.3 72.2 1.3 72.2 1.3 72 1.4 71.9 1.5 71.7 1.6 71.5 1.8 71.2 1.8 71 1.8 71 1.8 70.4 1.8 70.4 1.9 69.9 2.6 69.2 2.8 68.8 2.8 68.8 2.8 67.6 1.7 65.7 1.6 64.2 1.6 64.2 1.8 63.5 2 62.9 2.1 62.6 2.3 62.3 2.4 62.1 2.5 61.5 2.6 61.1 4.2 58.9 4.5 58.3 4.6 57.7 4.7 56.9 4.9 56.2 5.3 55.8 5.7 55.6 6.1 55 6.1 54.5 6.1 54.5 6 54 5.8 53.5 5.7 53.1 5.7 53.1 5.7 52.6 5.9 51.6 6.1 51.2 6.2 50.8 6.4 50.6 6.5 50.2 6.6 49.5 6.7 49.2 7 48.9 7.6 48.4 7.6 48.1 7.6 48.1 7.3 47.3 7.3 46 7.5 44.8 8.6 43.2 8.9 43 9.3 42.9 9.7 42.5 10.3 41.7 10.6 41.5 11 41.2 11.2 40.8 11.3 40.5 11.4 39.8 11.5 39.5 11.8 39.4 12.5 39.4 12.7 39.3 12.8 39.2 12.9 39 12.9 38.6 13 38.4 13.1 38.3 13.2 38.2 13.4 38.2 14.3 37.7 14.5 37.6 14.8 37.1 15.9 34 16.7 32.5 17.2 32 17.2 32 18 31.7 18.8 30.8 19.3 30 21.1 26.2 21.2 25.9 21.7 22.3 21.9 21.6 22.1 21.3 22.4 21.2 24.2 19.1 24.2 18.7 23.7 18.5 23.7 18.1 24.6 16.1 24.6 15.7 24.4 15.1 24.4 14.8 24.5 14.7 24.7 14.1 24.8 14 24.5 13.6 24.1 13.5 23.7 13.4 23.2 13.2 23.2 13 23.8 12.7 23.8 12.5 23.4 11.8 22.9 10.1 22.4 9.3 22.6 8.4 23.4 8.1 23.6 8 23.7 8 24 8.2 24.6 8.6 26.3 10.4 26.8 10.2 26.9 10.1 27 10.1 27.1 10 27.4 9.9 27.4 9.9 27.5 9.8 27.5 9.7 27.6 9.6 27.6 9.5 27.6 9.4 27.5 9.1 27.3 8.2 27.3 8.2 27.1 7.4 27.1 7.3 27.1 7.2 27.2 7.2 28.9 6.7 29 6.7 29.1 6.8 29.1 7 29.1 7.1 29.4 7.5 29.4 7.7 29.4 7.8 29.4 7.9 29.4 8 29.3 8.1 29.3 8.2 29.3 8.2 29.4 8.6 29.7 9.4 29.8 9.5 29.8 9.6 29.9 9.7 30.1 9.8 30.8 10.3 31.2 10.5 31.6 10.6 32.2 10.5 32.3 10.5 32.4 10.6 32.5 10.8 32.6 11.1 32.6 11.2 32.7 11.2 32.8 11.3 33.1 11.3 34.3 11.2 34.4 11.4 34.4 11.4 34.4 11.5 34.4 11.5 34.4 11.7 34.4 11.8 34.3 12 34.2 12.1 34 12.4 33.9 12.4 33.9 12.4 33.7 12.3 33.6 12.2 33.5 12 33.4 12 33.3 12.1 32.9 12.5 32.9 12.6 32.8 12.7 32.8 12.9 32.8 13 32.8 13.2 32.9 13.8 32.9 13.9 32.9 14 32.8 14.1 32.8 14.1 32.5 14.2 32.5 14.3 32.4 14.3 32.4 14.4 32.4 14.6 32.4 14.9 32.4 15 32.4 15.1 32.5 15.1 32.5 15.1 32.9 15.3 33.1 15.3 33.2 15.4 33.4 15.3 33.6 15.2 34.1 14.7 34.4 14.3 34.4 14.2 34.4 14.1 34.5 13.6 34.6 13.5 34.6 13.5 34.7 13.4 34.8 13.5 34.8 13.7 34.8 13.8 34.9 13.8 35.1 13.8 35.6 13.4 35.7 13.2 35.7 13.1 35.6 12.9 35.6 12.7 35.6 12.6 35.4 12.4 35.3 12.2 35.3 12.2 35.3 12.1 35.3 12 35.9 11.4 35.9 11.4 35.9 11.3 35.9 11.3 36 11.3 37.3 11.3 37.5 11.3 37.6 11.3 37.9 11.4 38.1 11.3 38.2 11.3 38.8 10.7 39 10.7 39.2 10.7 39.5 10.7 39.6 10.7 39.6 10.7 39.7 10.8 39.9 11 39.9 11.1 40 11.1 40.1 11.1 40.2 11.1 40.2 11.1 40.2 11 40.2 10.8 39.9 10.4 39.7 10 39.6 9.9 39.5 9.6 39.4 9.5 39 9 38.9 8.9 38.9 8.7 38.9 8.7 39.1 8.6 39.4 8.9 39.5 8.9 39.6 8.9 39.8 8.6 40 8.7 40.1 8.7 41.5 8.4 41.9 8.5 43.4 8.5 43.5 8.4 43.6 8.3 43.7 8.1 43.8 8 43.9 7.7 43.9 7.6 44 7.5 44.2 7.3 44.2 7.2 44.3 7.1 44.2 7.1 44.2 6.6 44.2 6.5 44.4 6.3 44.7 6.1 44.9 6.1 45.1 6 45.4 6 45.7 6 46.4 5.7 46.5 5.7 46.6 5.7 46.9 6.1 47 6.1 47.1 6.1 47.6 5.7 47.5 5.4 47.4 5.2 47.4 5.2 47.4 5.2 47.4 5 47.7 3.5 47.6 3.4 47.6 3.4 47.5 3.3 47 3.1 47 3.1 46.9 3.1 46.9 3.1 46.8 3.2 46.8 3.2 46.8 3.3 46.7 3.6 46.6 3.7 46.6 3.8 46.5 3.8 46.4 3.9 46.3 3.9 46.2 3.8 46.2 3.7 46.2 3.6 46.3 3.3 46.3 3.2 46.2 3.1 46.2 3 46 2.9 45.2 2.8 45 2.7 44.9 2.6 44.8 2.6 44.8 2.4 44.8 2.3 45 2.1 45 1.9 45 1.9 45 1.9 45 1.8 44.8 1.3 44.9 1.1 45.2 .8 45.5 .6 45.8 .5 47 .6 47.9 .3 48.8 .1 49.2 .1"/>
</svg>