<?xml version="1.0" encoding="UTF-8"?>
<svg id="Layer_1" xmlns="http://www.w3.org/2000/svg" xmlns:xlink="http://www.w3.org/1999/xlink" version="1.1" viewBox="0 0 1996.2 490.4">
  <!-- Generator: Adobe Illustrator 30.3.0, SVG Export Plug-In . SVG Version: 2.1.3 Build 182)  -->
  <defs>
    <style>
      .st0 {
        stroke-miterlimit: 10;
      }

      .st0, .st1 {
        fill: none;
        stroke: #189cd9;
      }

      .st1 {
        stroke-linejoin: bevel;
      }

      .st2 {
        clip-path: url(#clippath-1);
      }

      .st3 {
        clip-path: url(#clippath-3);
      }

      .st4 {
        clip-path: url(#clippath-4);
      }

      .st5 {
        clip-path: url(#clippath-2);
      }

      .st6 {
        clip-path: url(#clippath-5);
      }

      .st7 {
        clip-path: url(#clippath);
      }
    </style>
    <clipPath id="clippath">
      <rect class="st0" x="1003" y=".5" width="115" height="115"/>
    </clipPath>
    <clipPath id="clippath-1">
      <rect class="st0" x="126.1" y="124.5" width="115" height="115"/>
    </clipPath>
    <clipPath id="clippath-2">
      <rect class="st0" x="1379.5" y="124.5" width="115" height="115"/>
    </clipPath>
    <clipPath id="clippath-3">
      <rect class="st0" x="878.2" y="250.6" width="115" height="115" transform="translate(1871.4 616.2) rotate(180)"/>
    </clipPath>
    <clipPath id="clippath-4">
      <rect class="st0" x="1755.2" y="374.6" width="115" height="115" transform="translate(3625.3 864.2) rotate(180)"/>
    </clipPath>
    <clipPath id="clippath-5">
      <rect class="st0" x="501.7" y="374.6" width="115" height="115" transform="translate(1118.3 864.2) rotate(180)"/>
    </clipPath>
  </defs>
  <rect class="st0" x="126" y="124.5" width="115" height="115"/>
  <g>
    <rect class="st0" x=".8" y=".5" width="115" height="115"/>
    <line class="st0" x1="14.1" y1=".5" x2="14.1" y2="115.5"/>
    <line class="st0" x1="27.2" y1=".5" x2="27.2" y2="115.5"/>
    <line class="st0" x1="89.1" y1=".5" x2="89.1" y2="115.5"/>
    <line class="st0" x1="102.2" y1=".5" x2="102.2" y2="115.5"/>
    <line class="st0" x1=".7" y1="102.1" x2="115.7" y2="102.1"/>
    <line class="st0" x1=".7" y1="89" x2="115.7" y2="89"/>
    <line class="st0" x1=".7" y1="27.1" x2="115.7" y2="27.1"/>
    <line class="st0" x1=".7" y1="14" x2="115.7" y2="14"/>
  </g>
  <g>
    <rect class="st0" x="126" y=".5" width="115" height="115"/>
    <g>
      <polyline class="st0" points="140.6 101.9 140.6 78 149.3 69.4 158 78 158 101.5"/>
      <polyline class="st0" points="140.6 83.4 140.6 107.2 149.3 115.9 158 107.2 158 83.8"/>
      <polyline class="st0" points="158.6 101.3 134.7 101.3 126 92.6 134.7 84 158.2 84"/>
      <polyline class="st0" points="140 101.3 163.9 101.3 172.6 92.6 163.9 84 140.4 84"/>
    </g>
    <g>
      <polyline class="st0" points="209.1 101.9 209.1 78 217.8 69.4 226.4 78 226.4 101.5"/>
      <polyline class="st0" points="209.1 83.4 209.1 107.2 217.8 115.9 226.4 107.2 226.4 83.8"/>
      <polyline class="st0" points="227 101.3 203.2 101.3 194.5 92.6 203.2 84 226.6 84"/>
      <polyline class="st0" points="208.5 101.3 232.4 101.3 241 92.6 232.4 84 208.9 84"/>
    </g>
    <g>
      <polyline class="st0" points="140.6 33.4 140.6 9.6 149.3 .9 158 9.6 158 33"/>
      <polyline class="st0" points="140.6 14.9 140.6 38.7 149.3 47.4 158 38.7 158 15.3"/>
      <polyline class="st0" points="158.6 32.8 134.7 32.8 126 24.1 134.7 15.5 158.2 15.5"/>
      <polyline class="st0" points="140 32.8 163.9 32.8 172.6 24.1 163.9 15.5 140.4 15.5"/>
    </g>
    <g>
      <polyline class="st0" points="209.1 33.4 209.1 9.6 217.8 .9 226.4 9.6 226.4 33"/>
      <polyline class="st0" points="209.1 14.9 209.1 38.7 217.8 47.4 226.4 38.7 226.4 15.3"/>
      <polyline class="st0" points="227 32.8 203.2 32.8 194.5 24.1 203.2 15.5 226.6 15.5"/>
      <polyline class="st0" points="208.5 32.8 232.4 32.8 241 24.1 232.4 15.5 208.9 15.5"/>
    </g>
    <polygon class="st0" points="203.3 49.8 203.3 38.3 191.7 38.3 183.5 30.1 175.3 38.3 163.8 38.3 163.8 49.8 155.6 58 163.8 66.2 163.8 77.8 163.8 77.8 175.3 77.8 183.5 86 191.7 77.8 203.3 77.8 203.3 66.2 211.5 58 203.3 49.8"/>
  </g>
  <g>
    <rect class="st0" x="251.3" y=".5" width="115" height="115"/>
    <g>
      <polyline class="st0" points="309.3 70.9 292.1 53.8 292.1 41.3 304.6 41.3 321.4 58.2"/>
      <polyline class="st0" points="296 57.6 313.1 74.7 325.5 74.7 325.5 62.3 308.7 45.5"/>
      <polyline class="st0" points="321.7 57.6 304.6 74.7 292.1 74.7 292.1 62.3 309 45.5"/>
      <polyline class="st0" points="308.4 70.9 325.5 53.8 325.5 41.3 313.1 41.3 296.2 58.2"/>
    </g>
    <line class="st0" x1="308.7" y1=".5" x2="308.7" y2="45.6"/>
    <line class="st0" x1="308.7" y1="70.5" x2="308.7" y2="115.6"/>
    <line class="st0" x1="312.8" y1=".5" x2="312.8" y2="41.6"/>
    <line class="st0" x1="304.6" y1=".5" x2="304.6" y2="41.6"/>
    <line class="st0" x1="312.8" y1="74.5" x2="312.8" y2="115.5"/>
    <line class="st0" x1="304.6" y1="74.5" x2="304.6" y2="115.5"/>
    <line class="st0" x1="251.2" y1="58" x2="296.4" y2="58"/>
    <line class="st0" x1="320.9" y1="58" x2="366.2" y2="58"/>
    <line class="st0" x1="251.2" y1="54" x2="292.2" y2="54"/>
    <line class="st0" x1="251.2" y1="62.1" x2="292.2" y2="62.1"/>
    <line class="st0" x1="325.1" y1="54" x2="366.2" y2="54"/>
    <line class="st0" x1="325.1" y1="62.1" x2="366.2" y2="62.1"/>
    <rect class="st0" x="251.3" y=".5" width="40.8" height="40.8"/>
    <rect class="st0" x="325.5" y=".5" width="40.8" height="40.8"/>
    <rect class="st0" x="251.3" y="74.7" width="40.8" height="40.8"/>
    <rect class="st0" x="325.5" y="74.7" width="40.8" height="40.8"/>
  </g>
  <g>
    <rect class="st0" x="376.3" y=".5" width="115" height="115"/>
    <g>
      <g>
        <polyline class="st0" points="427 76.3 392.5 41.8 392.5 16.7 417.5 16.7 451.5 50.6"/>
        <polyline class="st0" points="415.6 64.9 450.1 99.4 475.1 99.4 475.1 74.3 441.2 40.4"/>
      </g>
      <g>
        <polyline class="st0" points="427 39.8 392.5 74.3 392.5 99.4 417.5 99.4 451.5 65.5"/>
        <polyline class="st0" points="415.6 51.2 450.1 16.7 475.1 16.7 475.1 41.8 441.2 75.7"/>
      </g>
    </g>
    <rect class="st1" x="393.2" y="17.4" width="81.3" height="81.3" transform="translate(168.1 -289.7) rotate(45)"/>
  </g>
  <g>
    <rect class="st0" x="501.9" y=".5" width="115" height="115"/>
    <polygon class="st1" points="616.8 51.5 559.4 33.9 559.4 .5 616.8 18.1 616.8 51.5"/>
    <polygon class="st1" points="559.3 .5 501.9 18.1 501.9 51.5 559.3 33.9 559.3 .5"/>
    <polygon class="st1" points="616.8 64.5 559.4 82.1 559.4 115.5 616.8 97.9 616.8 64.5"/>
    <polygon class="st1" points="559.3 115.5 501.9 97.9 501.9 64.5 559.3 82.1 559.3 115.5"/>
  </g>
  <g>
    <rect class="st0" x="627.1" y=".5" width="115" height="115"/>
    <g>
      <polyline class="st1" points="645.2 98.3 645.2 68.8 655.9 58.1 666.5 68.8 666.5 97.8"/>
      <polyline class="st1" points="645.2 75.4 645.2 104.9 655.9 115.5 666.5 104.9 666.5 75.9"/>
      <polyline class="st1" points="667.3 97.5 637.8 97.5 627.2 86.8 637.8 76.2 666.8 76.2"/>
      <polyline class="st1" points="644.4 97.5 673.9 97.5 684.6 86.8 673.9 76.2 644.9 76.2"/>
    </g>
    <g>
      <polyline class="st1" points="702.6 98.3 702.6 68.8 713.2 58.1 723.9 68.8 723.9 97.8"/>
      <polyline class="st1" points="702.6 75.4 702.6 104.9 713.2 115.5 723.9 104.9 723.9 75.9"/>
      <polyline class="st1" points="724.7 97.5 695.2 97.5 684.6 86.8 695.2 76.2 724.2 76.2"/>
      <polyline class="st1" points="701.8 97.5 731.3 97.5 741.9 86.8 731.3 76.2 702.3 76.2"/>
    </g>
    <g>
      <polyline class="st1" points="645.2 40.6 645.2 11.2 655.9 .5 666.5 11.2 666.5 40.1"/>
      <polyline class="st1" points="645.2 17.8 645.2 47.2 655.9 57.9 666.5 47.2 666.5 18.2"/>
      <polyline class="st1" points="667.3 39.9 637.8 39.9 627.2 29.2 637.8 18.5 666.8 18.5"/>
      <polyline class="st1" points="644.4 39.9 673.9 39.9 684.6 29.2 673.9 18.5 644.9 18.5"/>
    </g>
    <g>
      <polyline class="st1" points="702.6 40.6 702.6 11.2 713.2 .5 723.9 11.2 723.9 40.1"/>
      <polyline class="st1" points="702.6 17.8 702.6 47.2 713.2 57.9 723.9 47.2 723.9 18.2"/>
      <polyline class="st1" points="724.7 39.9 695.2 39.9 684.6 29.2 695.2 18.5 724.2 18.5"/>
      <polyline class="st1" points="701.8 39.9 731.3 39.9 741.9 29.2 731.3 18.5 702.3 18.5"/>
    </g>
  </g>
  <g>
    <rect class="st0" x="752.4" y=".5" width="115" height="115"/>
    <polygon class="st1" points="867.4 115.5 801.8 66.2 752.4 .5 818.1 49.9 867.4 115.5"/>
    <polygon class="st1" points="867.4 .5 801.8 49.9 752.4 115.5 818.1 66.2 867.4 .5"/>
  </g>
  <g>
    <rect class="st0" x="877.6" y=".5" width="115" height="115"/>
    <polygon class="st1" points="954.9 38.2 877.6 .5 915.2 77.9 992.6 115.5 954.9 38.2"/>
    <polygon class="st1" points="954.9 77.9 877.6 115.5 915.2 38.2 992.6 .5 954.9 77.9"/>
    <line class="st1" x1="935.2" y1=".5" x2="935.2" y2="115.5"/>
    <line class="st1" x1="877.7" y1="58" x2="992.7" y2="58"/>
  </g>
  <g>
    <rect class="st0" x="1003" y=".5" width="115" height="115"/>
    <g>
      <g class="st7">
        <g>
          <rect class="st0" x="1050" y="47.5" width="21" height="21" transform="translate(269.6 766.9) rotate(-45)"/>
          <rect class="st0" x="1041.4" y="38.9" width="38.2" height="38.2" transform="translate(269.6 766.9) rotate(-45)"/>
          <rect class="st0" x="1032.8" y="30.3" width="55.4" height="55.4" transform="translate(269.6 766.9) rotate(-45)"/>
          <rect class="st0" x="1024.2" y="21.7" width="72.6" height="72.6" transform="translate(269.6 766.9) rotate(-45)"/>
          <rect class="st0" x="1015.6" y="13.1" width="89.8" height="89.8" transform="translate(269.6 766.9) rotate(-45)"/>
          <rect class="st0" x="1007" y="4.5" width="107.1" height="107.1" transform="translate(269.6 766.9) rotate(-45)"/>
          <rect class="st0" x="998.4" y="-4.1" width="124.3" height="124.3" transform="translate(269.6 766.9) rotate(-45)"/>
          <rect class="st0" x="989.7" y="-12.7" width="141.5" height="141.5" transform="translate(269.6 766.9) rotate(-45)"/>
        </g>
      </g>
      <rect class="st0" x="1003" y=".5" width="115" height="115"/>
    </g>
  </g>
  <g>
    <rect class="st0" x="1128.1" y=".5" width="115" height="115"/>
    <polygon class="st1" points="1157 115.5 1128.3 58 1157 .5 1185.6 58 1157 115.5"/>
    <polygon class="st1" points="1214.3 115.5 1185.6 58 1214.3 .5 1243.1 58 1214.3 115.5"/>
    <line class="st1" x1="1157" y1=".5" x2="1157" y2="115.5"/>
    <line class="st1" x1="1185.6" y1=".5" x2="1185.6" y2="115.5"/>
    <line class="st1" x1="1214.3" y1=".5" x2="1214.3" y2="115.5"/>
    <line class="st1" x1="1128.3" y1="58" x2="1243" y2="58"/>
  </g>
  <g>
    <rect class="st0" x=".8" y="124.5" width="115" height="115"/>
    <rect class="st0" x="31.1" y="135.8" width="54.3" height="54.3" transform="translate(132.3 6.5) rotate(45)"/>
    <rect class="st0" x="31.1" y="174.2" width="54.3" height="54.3" transform="translate(159.4 17.8) rotate(45)"/>
    <rect class="st0" x="11.9" y="155" width="54.3" height="54.3" transform="translate(-117.3 81) rotate(-45)"/>
    <rect class="st0" x="50.3" y="155" width="54.3" height="54.3" transform="translate(-106.1 108.1) rotate(-45)"/>
  </g>
  <g>
    <g class="st2">
      <g>
        <g>
          <rect class="st0" x="235.1" y="118.6" width="12.1" height="12.1" transform="translate(-17.5 207.1) rotate(-45)"/>
          <rect class="st0" x="230.2" y="113.6" width="22.1" height="22.1" transform="translate(-17.5 207.1) rotate(-45)"/>
          <rect class="st0" x="225.2" y="108.7" width="32" height="32" transform="translate(-17.5 207.1) rotate(-45)"/>
          <rect class="st0" x="220.2" y="103.7" width="42" height="42" transform="translate(-17.5 207.1) rotate(-45)"/>
          <rect class="st0" x="215.2" y="98.7" width="51.9" height="51.9" transform="translate(-17.5 207.1) rotate(-45)"/>
          <rect class="st0" x="210.3" y="93.8" width="61.9" height="61.9" transform="translate(-17.5 207.1) rotate(-45)"/>
          <rect class="st0" x="205.3" y="88.8" width="71.8" height="71.8" transform="translate(-17.5 207.1) rotate(-45)"/>
          <rect class="st0" x="200.3" y="83.8" width="81.8" height="81.8" transform="translate(-17.5 207.1) rotate(-45)"/>
        </g>
        <g>
          <rect class="st0" x="120.1" y="118.6" width="12.1" height="12.1" transform="translate(-51.2 125.8) rotate(-45)"/>
          <rect class="st0" x="115.2" y="113.6" width="22.1" height="22.1" transform="translate(-51.2 125.8) rotate(-45)"/>
          <rect class="st0" x="110.2" y="108.7" width="32" height="32" transform="translate(-51.2 125.8) rotate(-45)"/>
          <rect class="st0" x="105.2" y="103.7" width="42" height="42" transform="translate(-51.2 125.8) rotate(-45)"/>
          <rect class="st0" x="100.2" y="98.7" width="51.9" height="51.9" transform="translate(-51.2 125.8) rotate(-45)"/>
          <rect class="st0" x="95.3" y="93.8" width="61.9" height="61.9" transform="translate(-51.2 125.8) rotate(-45)"/>
          <rect class="st0" x="90.3" y="88.8" width="71.8" height="71.8" transform="translate(-51.2 125.8) rotate(-45)"/>
          <rect class="st0" x="85.3" y="83.8" width="81.8" height="81.8" transform="translate(-51.2 125.8) rotate(-45)"/>
        </g>
        <g>
          <rect class="st0" x="235.1" y="233.9" width="12.1" height="12.1" transform="translate(-99.1 240.9) rotate(-45)"/>
          <rect class="st0" x="230.2" y="229" width="22.1" height="22.1" transform="translate(-99.1 240.9) rotate(-45)"/>
          <rect class="st0" x="225.2" y="224" width="32" height="32" transform="translate(-99.1 240.9) rotate(-45)"/>
          <rect class="st0" x="220.2" y="219" width="42" height="42" transform="translate(-99.1 240.9) rotate(-45)"/>
          <rect class="st0" x="215.2" y="214.1" width="51.9" height="51.9" transform="translate(-99.1 240.9) rotate(-45)"/>
          <rect class="st0" x="210.3" y="209.1" width="61.9" height="61.9" transform="translate(-99.1 240.9) rotate(-45)"/>
          <rect class="st0" x="205.3" y="204.1" width="71.8" height="71.8" transform="translate(-99.1 240.9) rotate(-45)"/>
          <rect class="st0" x="200.3" y="199.1" width="81.8" height="81.8" transform="translate(-99.1 240.9) rotate(-45)"/>
        </g>
        <g>
          <rect class="st0" x="120.1" y="233.9" width="12.1" height="12.1" transform="translate(-132.8 159.5) rotate(-45)"/>
          <rect class="st0" x="115.2" y="229" width="22.1" height="22.1" transform="translate(-132.8 159.5) rotate(-45)"/>
          <rect class="st0" x="110.2" y="224" width="32" height="32" transform="translate(-132.8 159.5) rotate(-45)"/>
          <rect class="st0" x="105.2" y="219" width="42" height="42" transform="translate(-132.8 159.5) rotate(-45)"/>
          <rect class="st0" x="100.2" y="214.1" width="51.9" height="51.9" transform="translate(-132.8 159.5) rotate(-45)"/>
          <rect class="st0" x="95.3" y="209.1" width="61.9" height="61.9" transform="translate(-132.8 159.5) rotate(-45)"/>
          <rect class="st0" x="90.3" y="204.1" width="71.8" height="71.8" transform="translate(-132.8 159.5) rotate(-45)"/>
          <rect class="st0" x="85.3" y="199.1" width="81.8" height="81.8" transform="translate(-132.8 159.5) rotate(-45)"/>
        </g>
      </g>
    </g>
    <rect class="st0" x="126.1" y="124.5" width="115" height="115"/>
  </g>
  <g>
    <rect class="st0" x="251.3" y="124.5" width="115" height="115"/>
    <line class="st0" x1="308.9" y1="124.5" x2="308.9" y2="239.5"/>
    <line class="st0" x1="251.3" y1="182" x2="366.3" y2="182"/>
    <rect class="st0" x="317.1" y="162" width="40.4" height="40.4" transform="translate(227.6 -185.2) rotate(45)"/>
    <rect class="st0" x="260.2" y="162" width="40.4" height="40.4" transform="translate(210.9 -144.9) rotate(45)"/>
    <line class="st0" x1="280.4" y1="124.5" x2="280.4" y2="239.5"/>
    <line class="st0" x1="337.3" y1="124.5" x2="337.3" y2="239.5"/>
  </g>
  <g>
    <rect class="st0" x="376.5" y="124.5" width="115" height="115"/>
    <line class="st0" x1="376.5" y1="124.5" x2="491.5" y2="239.5"/>
    <line class="st0" x1="389" y1="124.5" x2="491.5" y2="227"/>
    <line class="st0" x1="376.5" y1="137" x2="479" y2="239.5"/>
    <line class="st0" x1="376.5" y1="239.5" x2="491.5" y2="124.5"/>
    <line class="st0" x1="389" y1="239.5" x2="491.5" y2="137"/>
    <line class="st0" x1="376.5" y1="227" x2="479" y2="124.5"/>
  </g>
  <g>
    <rect class="st0" x="501.8" y="124.5" width="115" height="115"/>
    <g>
      <polyline class="st1" points="559.3 124.7 599.5 141.8 616.5 181.9"/>
      <polyline class="st1" points="502.1 181.9 542.2 164.8 559.3 124.7"/>
      <polyline class="st1" points="559.4 239.2 599.5 222.1 616.6 182"/>
      <polyline class="st1" points="502.1 182.2 542.2 199.3 559.3 239.4"/>
      <polyline class="st1" points="502.1 182.2 519.2 222.3 559.3 239.4"/>
      <polyline class="st1" points="559.4 124.8 576.6 165 616.7 182.1"/>
      <polyline class="st1" points="559.3 124.7 519.2 141.8 502.1 181.9"/>
      <polyline class="st1" points="616.7 182 576.5 199.1 559.4 239.3"/>
    </g>
  </g>
  <g>
    <rect class="st0" x="627.1" y="124.5" width="115" height="115"/>
    <polyline class="st1" points="684.6 239.5 684.6 182 627.2 124.5"/>
    <polyline class="st1" points="684.6 239.5 684.6 182 741.9 124.5"/>
    <polyline class="st1" points="667.1 239.5 667.1 199.4 627.1 159.3"/>
    <polyline class="st1" points="702 239.5 702 199.4 742.1 159.3"/>
    <polyline class="st1" points="667.1 124.5 684.6 140.2 702 124.5"/>
  </g>
  <g>
    <rect class="st0" x="752.3" y="124.5" width="115" height="115"/>
    <rect class="st0" x="752.3" y="216.5" width="23" height="23"/>
    <rect class="st0" x="775.3" y="216.5" width="23" height="23"/>
    <rect class="st0" x="798.3" y="216.5" width="23" height="23"/>
    <rect class="st0" x="821.3" y="216.5" width="23" height="23"/>
    <rect class="st0" x="775.3" y="193.5" width="23" height="23"/>
    <rect class="st0" x="798.3" y="193.5" width="23" height="23"/>
    <rect class="st0" x="798.3" y="170.5" width="23" height="23"/>
    <rect class="st0" x="821.3" y="193.5" width="23" height="23"/>
    <rect class="st0" x="844.3" y="216.5" width="23" height="23"/>
    <rect class="st0" x="752.3" y="124.5" width="23" height="23"/>
    <rect class="st0" x="775.3" y="147.5" width="23" height="23"/>
    <rect class="st0" x="798.3" y="147.5" width="23" height="23"/>
    <rect class="st0" x="821.3" y="147.5" width="23" height="23"/>
    <rect class="st0" x="775.3" y="124.5" width="23" height="23"/>
    <rect class="st0" x="798.3" y="124.5" width="23" height="23"/>
    <rect class="st0" x="821.3" y="124.5" width="23" height="23"/>
    <rect class="st0" x="844.3" y="124.5" width="23" height="23"/>
  </g>
  <g>
    <rect class="st0" x="877.6" y="124.5" width="115" height="115"/>
    <rect class="st0" x="884.3" y="131.3" width="101.5" height="101.5"/>
    <rect class="st0" x="891" y="138" width="88.1" height="88.1"/>
    <rect class="st0" x="897.8" y="144.7" width="74.6" height="74.6"/>
    <rect class="st0" x="904.5" y="151.5" width="61.2" height="61.2"/>
    <rect class="st0" x="911.2" y="158.2" width="47.7" height="47.7"/>
    <rect class="st0" x="918" y="164.9" width="34.2" height="34.2"/>
    <rect class="st0" x="924.7" y="171.7" width="20.8" height="20.8"/>
  </g>
  <g>
    <rect class="st0" x="1002.8" y="124.5" width="115" height="115"/>
    <polygon class="st0" points="1017.3 182 1003 239.5 1031.7 239.5 1017.3 182"/>
    <polygon class="st0" points="1046.1 182 1031.7 239.5 1060.4 239.5 1046.1 182"/>
    <polygon class="st0" points="1074.8 182 1060.4 239.5 1089.1 239.5 1074.8 182"/>
    <polygon class="st0" points="1103.5 182 1089.1 239.5 1117.8 239.5 1103.5 182"/>
    <polygon class="st0" points="1017.3 182.1 1003 124.5 1031.7 124.5 1017.3 182.1"/>
    <polygon class="st0" points="1046.1 182.1 1031.7 124.5 1060.4 124.5 1046.1 182.1"/>
    <polygon class="st0" points="1074.8 182.1 1060.4 124.5 1089.1 124.5 1074.8 182.1"/>
    <polygon class="st0" points="1103.5 182.1 1089.1 124.5 1117.8 124.5 1103.5 182.1"/>
  </g>
  <g>
    <rect class="st0" x="1128.3" y="124.5" width="115" height="115"/>
    <g>
      <g>
        <polyline class="st0" points="1137.4 199 1137.4 162.8 1157.8 162.8 1157.8 133.7 1147.6 133.7 1147.6 199"/>
        <polyline class="st0" points="1202.7 133.7 1166.5 133.7 1166.5 154.1 1137.4 154.1 1137.4 143.9 1202.7 143.9"/>
      </g>
      <g>
        <polyline class="st0" points="1234.2 199 1234.2 162.8 1213.7 162.8 1213.7 133.7 1223.9 133.7 1223.9 199"/>
        <polyline class="st0" points="1168.9 133.7 1205 133.7 1205 154.1 1234.2 154.1 1234.2 143.9 1168.9 143.9"/>
      </g>
      <g>
        <polyline class="st0" points="1137.4 165.1 1137.4 201.3 1157.8 201.3 1157.8 230.4 1147.6 230.4 1147.6 165.1"/>
        <polyline class="st0" points="1202.7 230.4 1166.5 230.4 1166.5 210 1137.4 210 1137.4 220.2 1202.7 220.2"/>
      </g>
      <g>
        <polyline class="st0" points="1234.2 165.1 1234.2 201.3 1213.7 201.3 1213.7 230.4 1223.9 230.4 1223.9 165.1"/>
        <polyline class="st0" points="1168.9 230.4 1205 230.4 1205 210 1234.2 210 1234.2 220.2 1168.9 220.2"/>
      </g>
    </g>
  </g>
  <rect class="st0" x="1379.5" y="124.5" width="115" height="115"/>
  <g>
    <rect class="st0" x="1254.3" y=".5" width="115" height="115"/>
    <line class="st0" x1="1267.6" y1=".5" x2="1267.6" y2="115.5"/>
    <line class="st0" x1="1280.7" y1=".5" x2="1280.7" y2="115.5"/>
    <line class="st0" x1="1342.6" y1=".5" x2="1342.6" y2="115.5"/>
    <line class="st0" x1="1355.7" y1=".5" x2="1355.7" y2="115.5"/>
    <line class="st0" x1="1254.2" y1="102.1" x2="1369.2" y2="102.1"/>
    <line class="st0" x1="1254.2" y1="89" x2="1369.2" y2="89"/>
    <line class="st0" x1="1254.2" y1="27.1" x2="1369.2" y2="27.1"/>
    <line class="st0" x1="1254.2" y1="14" x2="1369.2" y2="14"/>
  </g>
  <g>
    <rect class="st0" x="1379.5" y=".5" width="115" height="115"/>
    <g>
      <polyline class="st0" points="1394.1 101.9 1394.1 78 1402.8 69.4 1411.5 78 1411.5 101.5"/>
      <polyline class="st0" points="1394.1 83.4 1394.1 107.2 1402.8 115.9 1411.5 107.2 1411.5 83.8"/>
      <polyline class="st0" points="1412.1 101.3 1388.2 101.3 1379.5 92.6 1388.2 84 1411.7 84"/>
      <polyline class="st0" points="1393.5 101.3 1417.4 101.3 1426.1 92.6 1417.4 84 1393.9 84"/>
    </g>
    <g>
      <polyline class="st0" points="1462.6 101.9 1462.6 78 1471.2 69.4 1479.9 78 1479.9 101.5"/>
      <polyline class="st0" points="1462.6 83.4 1462.6 107.2 1471.2 115.9 1479.9 107.2 1479.9 83.8"/>
      <polyline class="st0" points="1480.5 101.3 1456.7 101.3 1448 92.6 1456.7 84 1480.1 84"/>
      <polyline class="st0" points="1462 101.3 1485.8 101.3 1494.5 92.6 1485.8 84 1462.4 84"/>
    </g>
    <g>
      <polyline class="st0" points="1394.1 33.4 1394.1 9.6 1402.8 .9 1411.5 9.6 1411.5 33"/>
      <polyline class="st0" points="1394.1 14.9 1394.1 38.7 1402.8 47.4 1411.5 38.7 1411.5 15.3"/>
      <polyline class="st0" points="1412.1 32.8 1388.2 32.8 1379.5 24.1 1388.2 15.5 1411.7 15.5"/>
      <polyline class="st0" points="1393.5 32.8 1417.4 32.8 1426.1 24.1 1417.4 15.5 1393.9 15.5"/>
    </g>
    <g>
      <polyline class="st0" points="1462.6 33.4 1462.6 9.6 1471.2 .9 1479.9 9.6 1479.9 33"/>
      <polyline class="st0" points="1462.6 14.9 1462.6 38.7 1471.2 47.4 1479.9 38.7 1479.9 15.3"/>
      <polyline class="st0" points="1480.5 32.8 1456.7 32.8 1448 24.1 1456.7 15.5 1480.1 15.5"/>
      <polyline class="st0" points="1462 32.8 1485.8 32.8 1494.5 24.1 1485.8 15.5 1462.4 15.5"/>
    </g>
    <polygon class="st0" points="1456.8 49.8 1456.8 38.3 1445.2 38.3 1437 30.1 1428.8 38.3 1417.3 38.3 1417.3 49.8 1409.1 58 1417.3 66.2 1417.3 77.8 1417.3 77.8 1428.8 77.8 1437 86 1445.2 77.8 1456.8 77.8 1456.8 66.2 1464.9 58 1456.8 49.8"/>
  </g>
  <g>
    <rect class="st0" x="1504.8" y=".5" width="115" height="115"/>
    <g>
      <polyline class="st0" points="1562.7 70.9 1545.6 53.8 1545.6 41.3 1558.1 41.3 1574.9 58.2"/>
      <polyline class="st0" points="1549.4 57.6 1566.6 74.7 1579 74.7 1579 62.3 1562.2 45.5"/>
      <polyline class="st0" points="1575.2 57.6 1558.1 74.7 1545.6 74.7 1545.6 62.3 1562.5 45.5"/>
      <polyline class="st0" points="1561.9 70.9 1579 53.8 1579 41.3 1566.6 41.3 1549.7 58.2"/>
    </g>
    <line class="st0" x1="1562.2" y1=".5" x2="1562.2" y2="45.6"/>
    <line class="st0" x1="1562.2" y1="70.5" x2="1562.2" y2="115.6"/>
    <line class="st0" x1="1566.3" y1=".5" x2="1566.3" y2="41.6"/>
    <line class="st0" x1="1558.1" y1=".5" x2="1558.1" y2="41.6"/>
    <line class="st0" x1="1566.3" y1="74.5" x2="1566.3" y2="115.5"/>
    <line class="st0" x1="1558.1" y1="74.5" x2="1558.1" y2="115.5"/>
    <line class="st0" x1="1504.7" y1="58" x2="1549.9" y2="58"/>
    <line class="st0" x1="1574.4" y1="58" x2="1619.7" y2="58"/>
    <line class="st0" x1="1504.7" y1="54" x2="1545.7" y2="54"/>
    <line class="st0" x1="1504.7" y1="62.1" x2="1545.7" y2="62.1"/>
    <line class="st0" x1="1578.6" y1="54" x2="1619.7" y2="54"/>
    <line class="st0" x1="1578.6" y1="62.1" x2="1619.7" y2="62.1"/>
    <rect class="st0" x="1504.8" y=".5" width="40.8" height="40.8"/>
    <rect class="st0" x="1579" y=".5" width="40.8" height="40.8"/>
    <rect class="st0" x="1504.8" y="74.7" width="40.8" height="40.8"/>
    <rect class="st0" x="1579" y="74.7" width="40.8" height="40.8"/>
  </g>
  <g>
    <rect class="st0" x="1629.8" y=".5" width="115" height="115"/>
    <g>
      <g>
        <polyline class="st0" points="1680.5 76.3 1646 41.8 1646 16.7 1671 16.7 1704.9 50.6"/>
        <polyline class="st0" points="1669.1 64.9 1703.6 99.4 1728.6 99.4 1728.6 74.3 1694.7 40.4"/>
      </g>
      <g>
        <polyline class="st0" points="1680.5 39.8 1646 74.3 1646 99.4 1671 99.4 1704.9 65.5"/>
        <polyline class="st0" points="1669.1 51.2 1703.6 16.7 1728.6 16.7 1728.6 41.8 1694.7 75.7"/>
      </g>
    </g>
    <rect class="st1" x="1646.6" y="17.4" width="81.3" height="81.3" transform="translate(535.2 -1176.1) rotate(45)"/>
  </g>
  <g>
    <rect class="st0" x="1755.4" y=".5" width="115" height="115"/>
    <polygon class="st1" points="1870.3 51.5 1812.9 33.9 1812.9 .5 1870.3 18.1 1870.3 51.5"/>
    <polygon class="st1" points="1812.8 .5 1755.4 18.1 1755.4 51.5 1812.8 33.9 1812.8 .5"/>
    <polygon class="st1" points="1870.3 64.5 1812.9 82.1 1812.9 115.5 1870.3 97.9 1870.3 64.5"/>
    <polygon class="st1" points="1812.8 115.5 1755.4 97.9 1755.4 64.5 1812.8 82.1 1812.8 115.5"/>
  </g>
  <g>
    <rect class="st0" x="1880.5" y=".5" width="115" height="115"/>
    <g>
      <polyline class="st1" points="1898.6 98.3 1898.6 68.8 1909.3 58.1 1920 68.8 1920 97.8"/>
      <polyline class="st1" points="1898.6 75.4 1898.6 104.9 1909.3 115.5 1920 104.9 1920 75.9"/>
      <polyline class="st1" points="1920.8 97.5 1891.3 97.5 1880.6 86.8 1891.3 76.2 1920.3 76.2"/>
      <polyline class="st1" points="1897.9 97.5 1927.3 97.5 1938 86.8 1927.3 76.2 1898.4 76.2"/>
    </g>
    <g>
      <polyline class="st1" points="1956 98.3 1956 68.8 1966.7 58.1 1977.4 68.8 1977.4 97.8"/>
      <polyline class="st1" points="1956 75.4 1956 104.9 1966.7 115.5 1977.4 104.9 1977.4 75.9"/>
      <polyline class="st1" points="1978.2 97.5 1948.7 97.5 1938 86.8 1948.7 76.2 1977.7 76.2"/>
      <polyline class="st1" points="1955.3 97.5 1984.7 97.5 1995.4 86.8 1984.7 76.2 1955.8 76.2"/>
    </g>
    <g>
      <polyline class="st1" points="1898.6 40.6 1898.6 11.2 1909.3 .5 1920 11.2 1920 40.1"/>
      <polyline class="st1" points="1898.6 17.8 1898.6 47.2 1909.3 57.9 1920 47.2 1920 18.2"/>
      <polyline class="st1" points="1920.8 39.9 1891.3 39.9 1880.6 29.2 1891.3 18.5 1920.3 18.5"/>
      <polyline class="st1" points="1897.9 39.9 1927.3 39.9 1938 29.2 1927.3 18.5 1898.4 18.5"/>
    </g>
    <g>
      <polyline class="st1" points="1956 40.6 1956 11.2 1966.7 .5 1977.4 11.2 1977.4 40.1"/>
      <polyline class="st1" points="1956 17.8 1956 47.2 1966.7 57.9 1977.4 47.2 1977.4 18.2"/>
      <polyline class="st1" points="1978.2 39.9 1948.7 39.9 1938 29.2 1948.7 18.5 1977.7 18.5"/>
      <polyline class="st1" points="1955.3 39.9 1984.7 39.9 1995.4 29.2 1984.7 18.5 1955.8 18.5"/>
    </g>
  </g>
  <g>
    <rect class="st0" x="1254.3" y="124.5" width="115" height="115"/>
    <rect class="st0" x="1284.6" y="135.8" width="54.3" height="54.3" transform="translate(499.4 -879.8) rotate(45)"/>
    <rect class="st0" x="1284.6" y="174.2" width="54.3" height="54.3" transform="translate(526.5 -868.6) rotate(45)"/>
    <rect class="st0" x="1265.4" y="155" width="54.3" height="54.3" transform="translate(249.8 967.3) rotate(-45)"/>
    <rect class="st0" x="1303.8" y="155" width="54.3" height="54.3" transform="translate(261.1 994.5) rotate(-45)"/>
  </g>
  <g>
    <g class="st5">
      <g>
        <g>
          <rect class="st0" x="1488.6" y="118.6" width="12.1" height="12.1" transform="translate(349.6 1093.4) rotate(-45)"/>
          <rect class="st0" x="1483.6" y="113.6" width="22.1" height="22.1" transform="translate(349.6 1093.4) rotate(-45)"/>
          <rect class="st0" x="1478.7" y="108.7" width="32" height="32" transform="translate(349.6 1093.4) rotate(-45)"/>
          <rect class="st0" x="1473.7" y="103.7" width="42" height="42" transform="translate(349.6 1093.4) rotate(-45)"/>
          <rect class="st0" x="1468.7" y="98.7" width="51.9" height="51.9" transform="translate(349.6 1093.4) rotate(-45)"/>
          <rect class="st0" x="1463.7" y="93.8" width="61.9" height="61.9" transform="translate(349.6 1093.4) rotate(-45)"/>
          <rect class="st0" x="1458.8" y="88.8" width="71.8" height="71.8" transform="translate(349.6 1093.4) rotate(-45)"/>
          <rect class="st0" x="1453.8" y="83.8" width="81.8" height="81.8" transform="translate(349.6 1093.4) rotate(-45)"/>
        </g>
        <g>
          <rect class="st0" x="1373.6" y="118.6" width="12.1" height="12.1" transform="translate(315.9 1012.1) rotate(-45)"/>
          <rect class="st0" x="1368.6" y="113.6" width="22.1" height="22.1" transform="translate(315.9 1012.1) rotate(-45)"/>
          <rect class="st0" x="1363.7" y="108.7" width="32" height="32" transform="translate(315.9 1012.1) rotate(-45)"/>
          <rect class="st0" x="1358.7" y="103.7" width="42" height="42" transform="translate(315.9 1012.1) rotate(-45)"/>
          <rect class="st0" x="1353.7" y="98.7" width="51.9" height="51.9" transform="translate(315.9 1012.1) rotate(-45)"/>
          <rect class="st0" x="1348.7" y="93.8" width="61.9" height="61.9" transform="translate(315.9 1012.1) rotate(-45)"/>
          <rect class="st0" x="1343.8" y="88.8" width="71.8" height="71.8" transform="translate(315.9 1012.1) rotate(-45)"/>
          <rect class="st0" x="1338.8" y="83.8" width="81.8" height="81.8" transform="translate(315.9 1012.1) rotate(-45)"/>
        </g>
        <g>
          <rect class="st0" x="1488.6" y="233.9" width="12.1" height="12.1" transform="translate(268.1 1127.2) rotate(-45)"/>
          <rect class="st0" x="1483.6" y="229" width="22.1" height="22.1" transform="translate(268.1 1127.2) rotate(-45)"/>
          <rect class="st0" x="1478.7" y="224" width="32" height="32" transform="translate(268.1 1127.2) rotate(-45)"/>
          <rect class="st0" x="1473.7" y="219" width="42" height="42" transform="translate(268.1 1127.2) rotate(-45)"/>
          <rect class="st0" x="1468.7" y="214.1" width="51.9" height="51.9" transform="translate(268.1 1127.2) rotate(-45)"/>
          <rect class="st0" x="1463.7" y="209.1" width="61.9" height="61.9" transform="translate(268.1 1127.2) rotate(-45)"/>
          <rect class="st0" x="1458.8" y="204.1" width="71.8" height="71.8" transform="translate(268.1 1127.2) rotate(-45)"/>
          <rect class="st0" x="1453.8" y="199.1" width="81.8" height="81.8" transform="translate(268.1 1127.2) rotate(-45)"/>
        </g>
        <g>
          <rect class="st0" x="1373.6" y="233.9" width="12.1" height="12.1" transform="translate(234.4 1045.9) rotate(-45)"/>
          <rect class="st0" x="1368.6" y="229" width="22.1" height="22.1" transform="translate(234.4 1045.9) rotate(-45)"/>
          <rect class="st0" x="1363.7" y="224" width="32" height="32" transform="translate(234.4 1045.9) rotate(-45)"/>
          <rect class="st0" x="1358.7" y="219" width="42" height="42" transform="translate(234.4 1045.9) rotate(-45)"/>
          <rect class="st0" x="1353.7" y="214.1" width="51.9" height="51.9" transform="translate(234.4 1045.9) rotate(-45)"/>
          <rect class="st0" x="1348.7" y="209.1" width="61.9" height="61.9" transform="translate(234.4 1045.9) rotate(-45)"/>
          <rect class="st0" x="1343.8" y="204.1" width="71.8" height="71.8" transform="translate(234.4 1045.9) rotate(-45)"/>
          <rect class="st0" x="1338.8" y="199.1" width="81.8" height="81.8" transform="translate(234.4 1045.9) rotate(-45)"/>
        </g>
      </g>
    </g>
    <rect class="st0" x="1379.5" y="124.5" width="115" height="115"/>
  </g>
  <g>
    <rect class="st0" x="1504.8" y="124.5" width="115" height="115"/>
    <line class="st0" x1="1562.3" y1="124.5" x2="1562.3" y2="239.5"/>
    <line class="st0" x1="1504.8" y1="182" x2="1619.8" y2="182"/>
    <rect class="st0" x="1570.6" y="162" width="40.4" height="40.4" transform="translate(594.7 -1071.5) rotate(45)"/>
    <rect class="st0" x="1513.7" y="162" width="40.4" height="40.4" transform="translate(578.1 -1031.2) rotate(45)"/>
    <line class="st0" x1="1533.8" y1="124.5" x2="1533.8" y2="239.5"/>
    <line class="st0" x1="1590.8" y1="124.5" x2="1590.8" y2="239.5"/>
  </g>
  <g>
    <rect class="st0" x="1630" y="124.5" width="115" height="115"/>
    <line class="st0" x1="1630" y1="124.5" x2="1745" y2="239.5"/>
    <line class="st0" x1="1642.5" y1="124.5" x2="1745" y2="227"/>
    <line class="st0" x1="1630" y1="137" x2="1732.5" y2="239.5"/>
    <line class="st0" x1="1630" y1="239.5" x2="1745" y2="124.5"/>
    <line class="st0" x1="1642.5" y1="239.5" x2="1745" y2="137"/>
    <line class="st0" x1="1630" y1="227" x2="1732.5" y2="124.5"/>
  </g>
  <g>
    <rect class="st0" x="1755.3" y="124.5" width="115" height="115"/>
    <g>
      <polyline class="st1" points="1812.8 124.7 1852.9 141.8 1870 181.9"/>
      <polyline class="st1" points="1755.6 181.9 1795.7 164.8 1812.8 124.7"/>
      <polyline class="st1" points="1812.8 239.2 1853 222.1 1870.1 182"/>
      <polyline class="st1" points="1755.6 182.2 1795.7 199.3 1812.8 239.4"/>
      <polyline class="st1" points="1755.6 182.2 1772.7 222.3 1812.8 239.4"/>
      <polyline class="st1" points="1812.9 124.8 1830 165 1870.2 182.1"/>
      <polyline class="st1" points="1812.8 124.7 1772.6 141.8 1755.6 181.9"/>
      <polyline class="st1" points="1870.2 182 1830 199.1 1812.9 239.3"/>
    </g>
  </g>
  <g>
    <rect class="st0" x="1880.5" y="124.5" width="115" height="115"/>
    <polyline class="st1" points="1938 239.5 1938 182 1880.7 124.5"/>
    <polyline class="st1" points="1938 239.5 1938 182 1995.4 124.5"/>
    <polyline class="st1" points="1920.6 239.5 1920.6 199.4 1880.5 159.3"/>
    <polyline class="st1" points="1955.5 239.5 1955.5 199.4 1995.5 159.3"/>
    <polyline class="st1" points="1920.6 124.5 1938 140.2 1955.5 124.5"/>
  </g>
  <rect class="st0" x="1755.2" y="374.6" width="115" height="115" transform="translate(3625.4 864.2) rotate(180)"/>
  <g>
    <rect class="st0" x="1880.4" y="250.6" width="115" height="115" transform="translate(3875.9 616.2) rotate(180)"/>
    <line class="st0" x1="1982.1" y1="250.6" x2="1982.1" y2="365.6"/>
    <line class="st0" x1="1969" y1="250.6" x2="1969" y2="365.6"/>
    <line class="st0" x1="1907.1" y1="250.6" x2="1907.1" y2="365.6"/>
    <line class="st0" x1="1894" y1="250.6" x2="1894" y2="365.6"/>
    <line class="st0" x1="1995.5" y1="352.1" x2="1880.5" y2="352.1"/>
    <line class="st0" x1="1995.5" y1="339" x2="1880.5" y2="339"/>
    <line class="st0" x1="1995.5" y1="277.2" x2="1880.5" y2="277.2"/>
    <line class="st0" x1="1995.5" y1="264.1" x2="1880.5" y2="264.1"/>
  </g>
  <g>
    <rect class="st0" x="1755.2" y="250.6" width="115" height="115" transform="translate(3625.3 616.2) rotate(180)"/>
    <g>
      <polyline class="st0" points="1855.6 351.9 1855.6 328.1 1846.9 319.4 1838.2 328.1 1838.2 351.5"/>
      <polyline class="st0" points="1855.6 333.4 1855.6 357.3 1846.9 365.9 1838.2 357.3 1838.2 333.8"/>
      <polyline class="st0" points="1837.6 351.3 1861.5 351.3 1870.2 342.7 1861.5 334 1838 334"/>
      <polyline class="st0" points="1856.2 351.3 1832.3 351.3 1823.6 342.7 1832.3 334 1855.8 334"/>
    </g>
    <g>
      <polyline class="st0" points="1787.1 351.9 1787.1 328.1 1778.5 319.4 1769.8 328.1 1769.8 351.5"/>
      <polyline class="st0" points="1787.1 333.4 1787.1 357.3 1778.5 365.9 1769.8 357.3 1769.8 333.8"/>
      <polyline class="st0" points="1769.2 351.3 1793 351.3 1801.7 342.7 1793 334 1769.6 334"/>
      <polyline class="st0" points="1787.7 351.3 1763.9 351.3 1755.2 342.7 1763.9 334 1787.3 334"/>
    </g>
    <g>
      <polyline class="st0" points="1855.6 283.5 1855.6 259.6 1846.9 250.9 1838.2 259.6 1838.2 283.1"/>
      <polyline class="st0" points="1855.6 264.9 1855.6 288.8 1846.9 297.5 1838.2 288.8 1838.2 265.3"/>
      <polyline class="st0" points="1837.6 282.9 1861.5 282.9 1870.2 274.2 1861.5 265.5 1838 265.5"/>
      <polyline class="st0" points="1856.2 282.9 1832.3 282.9 1823.6 274.2 1832.3 265.5 1855.8 265.5"/>
    </g>
    <g>
      <polyline class="st0" points="1787.1 283.5 1787.1 259.6 1778.5 250.9 1769.8 259.6 1769.8 283.1"/>
      <polyline class="st0" points="1787.1 264.9 1787.1 288.8 1778.5 297.5 1769.8 288.8 1769.8 265.3"/>
      <polyline class="st0" points="1769.2 282.9 1793 282.9 1801.7 274.2 1793 265.5 1769.6 265.5"/>
      <polyline class="st0" points="1787.7 282.9 1763.9 282.9 1755.2 274.2 1763.9 265.5 1787.3 265.5"/>
    </g>
    <polygon class="st0" points="1792.9 299.9 1792.9 288.3 1804.5 288.3 1812.7 280.2 1820.9 288.3 1832.4 288.3 1832.4 299.9 1840.6 308.1 1832.4 316.3 1832.4 327.9 1832.4 327.9 1820.9 327.9 1812.7 336 1804.5 327.9 1792.9 327.9 1792.9 316.3 1784.7 308.1 1792.9 299.9"/>
  </g>
  <g>
    <rect class="st0" x="1629.9" y="250.6" width="115" height="115" transform="translate(3374.8 616.2) rotate(180)"/>
    <g>
      <polyline class="st0" points="1687 321 1704.1 303.8 1704.1 291.4 1691.6 291.4 1674.8 308.2"/>
      <polyline class="st0" points="1700.3 307.7 1683.1 324.8 1670.7 324.8 1670.7 312.3 1687.5 295.5"/>
      <polyline class="st0" points="1674.5 307.7 1691.6 324.8 1704.1 324.8 1704.1 312.3 1687.2 295.5"/>
      <polyline class="st0" points="1687.8 321 1670.7 303.8 1670.7 291.4 1683.1 291.4 1700 308.2"/>
    </g>
    <line class="st0" x1="1687.5" y1="250.6" x2="1687.5" y2="295.7"/>
    <line class="st0" x1="1687.5" y1="320.5" x2="1687.5" y2="365.6"/>
    <line class="st0" x1="1683.4" y1="250.6" x2="1683.4" y2="291.6"/>
    <line class="st0" x1="1691.6" y1="250.6" x2="1691.6" y2="291.6"/>
    <line class="st0" x1="1683.4" y1="324.5" x2="1683.4" y2="365.6"/>
    <line class="st0" x1="1691.6" y1="324.5" x2="1691.6" y2="365.6"/>
    <line class="st0" x1="1745" y1="308.1" x2="1699.8" y2="308.1"/>
    <line class="st0" x1="1675.3" y1="308.1" x2="1630" y2="308.1"/>
    <line class="st0" x1="1745" y1="304" x2="1704" y2="304"/>
    <line class="st0" x1="1745" y1="312.2" x2="1704" y2="312.2"/>
    <line class="st0" x1="1671.1" y1="304" x2="1630" y2="304"/>
    <line class="st0" x1="1671.1" y1="312.2" x2="1630" y2="312.2"/>
    <rect class="st0" x="1704.1" y="250.6" width="40.8" height="40.8" transform="translate(3449 542) rotate(180)"/>
    <rect class="st0" x="1629.9" y="250.6" width="40.8" height="40.8" transform="translate(3300.6 542) rotate(180)"/>
    <rect class="st0" x="1704.1" y="324.8" width="40.8" height="40.8" transform="translate(3449 690.4) rotate(180)"/>
    <rect class="st0" x="1629.9" y="324.8" width="40.8" height="40.8" transform="translate(3300.6 690.4) rotate(180)"/>
  </g>
  <g>
    <rect class="st0" x="1504.9" y="250.6" width="115" height="115" transform="translate(3124.8 616.2) rotate(180)"/>
    <g>
      <g>
        <polyline class="st0" points="1569.2 326.3 1603.7 291.8 1603.7 266.8 1578.7 266.8 1544.8 300.7"/>
        <polyline class="st0" points="1580.6 314.9 1546.1 349.4 1521.1 349.4 1521.1 324.4 1555 290.4"/>
      </g>
      <g>
        <polyline class="st0" points="1569.2 289.9 1603.7 324.4 1603.7 349.4 1578.7 349.4 1544.8 315.5"/>
        <polyline class="st0" points="1580.6 301.3 1546.1 266.8 1521.1 266.8 1521.1 291.8 1555 325.7"/>
      </g>
    </g>
    <rect class="st1" x="1521.7" y="267.4" width="81.3" height="81.3" transform="translate(2885 -578.8) rotate(135)"/>
  </g>
  <g>
    <rect class="st0" x="1379.3" y="250.6" width="115" height="115" transform="translate(2873.7 616.2) rotate(180)"/>
    <polygon class="st1" points="1379.4 301.6 1436.8 283.9 1436.8 250.5 1379.4 268.2 1379.4 301.6"/>
    <polygon class="st1" points="1436.9 250.5 1494.3 268.2 1494.3 301.6 1436.9 283.9 1436.9 250.5"/>
    <polygon class="st1" points="1379.4 314.5 1436.8 332.2 1436.8 365.6 1379.4 348 1379.4 314.5"/>
    <polygon class="st1" points="1436.9 365.6 1494.3 348 1494.3 314.5 1436.9 332.2 1436.9 365.6"/>
  </g>
  <g>
    <rect class="st0" x="1254.2" y="250.6" width="115" height="115" transform="translate(2623.3 616.2) rotate(180)"/>
    <g>
      <polyline class="st1" points="1351 348.3 1351 318.9 1340.4 308.2 1329.7 318.9 1329.7 347.8"/>
      <polyline class="st1" points="1351 325.5 1351 354.9 1340.4 365.6 1329.7 354.9 1329.7 326"/>
      <polyline class="st1" points="1328.9 347.6 1358.4 347.6 1369.1 336.9 1358.4 326.2 1329.4 326.2"/>
      <polyline class="st1" points="1351.8 347.6 1322.4 347.6 1311.7 336.9 1322.4 326.2 1351.3 326.2"/>
    </g>
    <g>
      <polyline class="st1" points="1293.7 348.3 1293.7 318.9 1283 308.2 1272.3 318.9 1272.3 347.8"/>
      <polyline class="st1" points="1293.7 325.5 1293.7 354.9 1283 365.6 1272.3 354.9 1272.3 326"/>
      <polyline class="st1" points="1271.5 347.6 1301 347.6 1311.7 336.9 1301 326.2 1272 326.2"/>
      <polyline class="st1" points="1294.4 347.6 1265 347.6 1254.3 336.9 1265 326.2 1293.9 326.2"/>
    </g>
    <g>
      <polyline class="st1" points="1351 290.6 1351 261.2 1340.4 250.5 1329.7 261.2 1329.7 290.2"/>
      <polyline class="st1" points="1351 267.8 1351 297.2 1340.4 307.9 1329.7 297.2 1329.7 268.3"/>
      <polyline class="st1" points="1328.9 289.9 1358.4 289.9 1369.1 279.2 1358.4 268.5 1329.4 268.5"/>
      <polyline class="st1" points="1351.8 289.9 1322.4 289.9 1311.7 279.2 1322.4 268.5 1351.3 268.5"/>
    </g>
    <g>
      <polyline class="st1" points="1293.7 290.6 1293.7 261.2 1283 250.5 1272.3 261.2 1272.3 290.2"/>
      <polyline class="st1" points="1293.7 267.8 1293.7 297.2 1283 307.9 1272.3 297.2 1272.3 268.3"/>
      <polyline class="st1" points="1271.5 289.9 1301 289.9 1311.7 279.2 1301 268.5 1272 268.5"/>
      <polyline class="st1" points="1294.4 289.9 1265 289.9 1254.3 279.2 1265 268.5 1293.9 268.5"/>
    </g>
  </g>
  <g>
    <rect class="st0" x="1128.8" y="250.6" width="115" height="115" transform="translate(2372.6 616.2) rotate(180)"/>
    <polygon class="st1" points="1128.8 365.6 1194.4 316.2 1243.8 250.6 1178.1 299.9 1128.8 365.6"/>
    <polygon class="st1" points="1128.8 250.6 1194.4 299.9 1243.8 365.6 1178.1 316.2 1128.8 250.6"/>
  </g>
  <g>
    <rect class="st0" x="1003.6" y="250.6" width="115" height="115" transform="translate(2122.3 616.2) rotate(180)"/>
    <polygon class="st1" points="1041.3 288.2 1118.6 250.6 1081 328 1003.6 365.6 1041.3 288.2"/>
    <polygon class="st1" points="1041.3 328 1118.6 365.6 1081 288.2 1003.6 250.6 1041.3 328"/>
    <line class="st1" x1="1061" y1="250.6" x2="1061" y2="365.6"/>
    <line class="st1" x1="1118.5" y1="308.1" x2="1003.5" y2="308.1"/>
  </g>
  <g>
    <rect class="st0" x="878.2" y="250.6" width="115" height="115" transform="translate(1871.4 616.2) rotate(180)"/>
    <g>
      <g class="st3">
        <g>
          <rect class="st0" x="925.2" y="297.6" width="21" height="21" transform="translate(56.2 751.9) rotate(-45)"/>
          <rect class="st0" x="916.6" y="289" width="38.2" height="38.2" transform="translate(56.2 751.9) rotate(-45)"/>
          <rect class="st0" x="908" y="280.4" width="55.4" height="55.4" transform="translate(56.2 751.9) rotate(-45)"/>
          <rect class="st0" x="899.4" y="271.8" width="72.6" height="72.6" transform="translate(56.2 751.9) rotate(-45)"/>
          <rect class="st0" x="890.8" y="263.2" width="89.8" height="89.8" transform="translate(56.2 751.9) rotate(-45)"/>
          <rect class="st0" x="882.2" y="254.6" width="107.1" height="107.1" transform="translate(56.2 751.9) rotate(-45)"/>
          <rect class="st0" x="873.6" y="246" width="124.3" height="124.3" transform="translate(56.2 751.9) rotate(-45)"/>
          <rect class="st0" x="865" y="237.3" width="141.5" height="141.5" transform="translate(56.2 751.9) rotate(-45)"/>
        </g>
      </g>
      <rect class="st0" x="878.2" y="250.6" width="115" height="115" transform="translate(1871.4 616.2) rotate(180)"/>
    </g>
  </g>
  <g>
    <rect class="st0" x="753.1" y="250.6" width="115" height="115" transform="translate(1621.3 616.2) rotate(180)"/>
    <polygon class="st1" points="839.2 365.6 867.9 308.1 839.2 250.6 810.6 308.1 839.2 365.6"/>
    <polygon class="st1" points="781.9 365.6 810.6 308.1 781.9 250.6 753.1 308.1 781.9 365.6"/>
    <line class="st1" x1="839.2" y1="250.6" x2="839.2" y2="365.6"/>
    <line class="st1" x1="810.6" y1="250.6" x2="810.6" y2="365.6"/>
    <line class="st1" x1="781.9" y1="250.6" x2="781.9" y2="365.6"/>
    <line class="st1" x1="867.9" y1="308.1" x2="753.2" y2="308.1"/>
  </g>
  <g>
    <rect class="st0" x="1880.4" y="374.6" width="115" height="115" transform="translate(3875.9 864.2) rotate(180)"/>
    <rect class="st0" x="1910.8" y="385.8" width="54.3" height="54.3" transform="translate(3600.3 -665.4) rotate(135)"/>
    <rect class="st0" x="1910.8" y="424.2" width="54.3" height="54.3" transform="translate(3627.4 -599.9) rotate(135)"/>
    <rect class="st0" x="1930" y="405" width="54.3" height="54.3" transform="translate(3035.5 2121.6) rotate(-135)"/>
    <rect class="st0" x="1891.6" y="405" width="54.3" height="54.3" transform="translate(2969.9 2094.5) rotate(-135)"/>
  </g>
  <g>
    <g class="st4">
      <g>
        <g>
          <rect class="st0" x="1748.9" y="368.7" width="12.1" height="12.1" transform="translate(249.1 1350.7) rotate(-45)"/>
          <rect class="st0" x="1744" y="363.7" width="22.1" height="22.1" transform="translate(249.1 1350.7) rotate(-45)"/>
          <rect class="st0" x="1739" y="358.7" width="32" height="32" transform="translate(249.1 1350.7) rotate(-45)"/>
          <rect class="st0" x="1734" y="353.7" width="42" height="42" transform="translate(249.1 1350.7) rotate(-45)"/>
          <rect class="st0" x="1729" y="348.8" width="51.9" height="51.9" transform="translate(249.1 1350.7) rotate(-45)"/>
          <rect class="st0" x="1724.1" y="343.8" width="61.9" height="61.9" transform="translate(249.1 1350.7) rotate(-45)"/>
          <rect class="st0" x="1719.1" y="338.8" width="71.8" height="71.8" transform="translate(249.1 1350.7) rotate(-45)"/>
          <rect class="st0" x="1714.1" y="333.8" width="81.8" height="81.8" transform="translate(249.1 1350.7) rotate(-45)"/>
        </g>
        <g>
          <rect class="st0" x="1863.9" y="368.7" width="12.1" height="12.1" transform="translate(282.7 1432.1) rotate(-45)"/>
          <rect class="st0" x="1859" y="363.7" width="22.1" height="22.1" transform="translate(282.7 1432.1) rotate(-45)"/>
          <rect class="st0" x="1854" y="358.7" width="32" height="32" transform="translate(282.7 1432.1) rotate(-45)"/>
          <rect class="st0" x="1849" y="353.7" width="42" height="42" transform="translate(282.7 1432.1) rotate(-45)"/>
          <rect class="st0" x="1844" y="348.8" width="51.9" height="51.9" transform="translate(282.7 1432.1) rotate(-45)"/>
          <rect class="st0" x="1839.1" y="343.8" width="61.9" height="61.9" transform="translate(282.7 1432.1) rotate(-45)"/>
          <rect class="st0" x="1834.1" y="338.8" width="71.8" height="71.8" transform="translate(282.7 1432.1) rotate(-45)"/>
          <rect class="st0" x="1829.1" y="333.8" width="81.8" height="81.8" transform="translate(282.7 1432.1) rotate(-45)"/>
        </g>
        <g>
          <rect class="st0" x="1748.9" y="484" width="12.1" height="12.1" transform="translate(167.5 1384.5) rotate(-45)"/>
          <rect class="st0" x="1744" y="479" width="22.1" height="22.1" transform="translate(167.5 1384.5) rotate(-45)"/>
          <rect class="st0" x="1739" y="474" width="32" height="32" transform="translate(167.5 1384.5) rotate(-45)"/>
          <rect class="st0" x="1734" y="469.1" width="42" height="42" transform="translate(167.5 1384.5) rotate(-45)"/>
          <rect class="st0" x="1729" y="464.1" width="51.9" height="51.9" transform="translate(167.5 1384.5) rotate(-45)"/>
          <rect class="st0" x="1724.1" y="459.1" width="61.9" height="61.9" transform="translate(167.5 1384.5) rotate(-45)"/>
          <rect class="st0" x="1719.1" y="454.1" width="71.8" height="71.8" transform="translate(167.5 1384.5) rotate(-45)"/>
          <rect class="st0" x="1714.1" y="449.2" width="81.8" height="81.8" transform="translate(167.5 1384.5) rotate(-45)"/>
        </g>
        <g>
          <rect class="st0" x="1863.9" y="484" width="12.1" height="12.1" transform="translate(201.2 1465.8) rotate(-45)"/>
          <rect class="st0" x="1859" y="479" width="22.1" height="22.1" transform="translate(201.2 1465.8) rotate(-45)"/>
          <rect class="st0" x="1854" y="474" width="32" height="32" transform="translate(201.2 1465.8) rotate(-45)"/>
          <rect class="st0" x="1849" y="469.1" width="42" height="42" transform="translate(201.2 1465.8) rotate(-45)"/>
          <rect class="st0" x="1844" y="464.1" width="51.9" height="51.9" transform="translate(201.2 1465.8) rotate(-45)"/>
          <rect class="st0" x="1839.1" y="459.1" width="61.9" height="61.9" transform="translate(201.2 1465.8) rotate(-45)"/>
          <rect class="st0" x="1834.1" y="454.1" width="71.8" height="71.8" transform="translate(201.2 1465.8) rotate(-45)"/>
          <rect class="st0" x="1829.1" y="449.2" width="81.8" height="81.8" transform="translate(201.2 1465.8) rotate(-45)"/>
        </g>
      </g>
    </g>
    <rect class="st0" x="1755.2" y="374.6" width="115" height="115" transform="translate(3625.3 864.2) rotate(180)"/>
  </g>
  <g>
    <rect class="st0" x="1629.9" y="374.6" width="115" height="115" transform="translate(3374.9 864.2) rotate(180)"/>
    <line class="st0" x1="1687.4" y1="374.6" x2="1687.4" y2="489.6"/>
    <line class="st0" x1="1744.9" y1="432.1" x2="1629.9" y2="432.1"/>
    <rect class="st0" x="1638.7" y="412" width="40.4" height="40.4" transform="translate(3137.5 -435.2) rotate(135)"/>
    <rect class="st0" x="1695.7" y="412" width="40.4" height="40.4" transform="translate(3234.7 -475.5) rotate(135)"/>
    <line class="st0" x1="1715.8" y1="374.6" x2="1715.8" y2="489.6"/>
    <line class="st0" x1="1658.9" y1="374.6" x2="1658.9" y2="489.6"/>
  </g>
  <g>
    <rect class="st0" x="1504.7" y="374.6" width="115" height="115" transform="translate(3124.3 864.2) rotate(180)"/>
    <line class="st0" x1="1619.7" y1="374.6" x2="1504.7" y2="489.6"/>
    <line class="st0" x1="1607.2" y1="374.6" x2="1504.7" y2="477.1"/>
    <line class="st0" x1="1619.7" y1="387.1" x2="1517.2" y2="489.6"/>
    <line class="st0" x1="1619.7" y1="489.6" x2="1504.7" y2="374.6"/>
    <line class="st0" x1="1607.2" y1="489.6" x2="1504.7" y2="387.1"/>
    <line class="st0" x1="1619.7" y1="477.1" x2="1517.2" y2="374.6"/>
  </g>
  <g>
    <rect class="st0" x="1379.4" y="374.6" width="115" height="115" transform="translate(2873.8 864.2) rotate(180)"/>
    <g>
      <polyline class="st1" points="1436.9 374.7 1396.8 391.8 1379.7 432"/>
      <polyline class="st1" points="1494.1 432 1454 414.8 1436.9 374.7"/>
      <polyline class="st1" points="1436.9 489.2 1396.7 472.1 1379.6 432"/>
      <polyline class="st1" points="1494.1 432.2 1454 449.3 1436.9 489.5"/>
      <polyline class="st1" points="1494.1 432.2 1477 472.4 1436.9 489.5"/>
      <polyline class="st1" points="1436.8 374.9 1419.7 415 1379.5 432.1"/>
      <polyline class="st1" points="1436.9 374.7 1477.1 391.8 1494.1 432"/>
      <polyline class="st1" points="1379.5 432.1 1419.7 449.2 1436.8 489.3"/>
    </g>
  </g>
  <g>
    <rect class="st0" x="1254.2" y="374.6" width="115" height="115" transform="translate(2623.3 864.2) rotate(180)"/>
    <polyline class="st1" points="1311.7 489.6 1311.7 432.1 1369 374.6"/>
    <polyline class="st1" points="1311.7 489.6 1311.7 432.1 1254.3 374.6"/>
    <polyline class="st1" points="1329.1 489.6 1329.1 449.5 1369.2 409.3"/>
    <polyline class="st1" points="1294.2 489.6 1294.2 449.5 1254.2 409.3"/>
    <polyline class="st1" points="1329.1 374.6 1311.7 390.3 1294.2 374.6"/>
  </g>
  <g>
    <rect class="st0" x="1128.9" y="374.6" width="115" height="115" transform="translate(2372.8 864.2) rotate(180)"/>
    <rect class="st0" x="1220.9" y="466.6" width="23" height="23" transform="translate(2464.8 956.2) rotate(180)"/>
    <rect class="st0" x="1197.9" y="466.6" width="23" height="23" transform="translate(2418.8 956.2) rotate(180)"/>
    <rect class="st0" x="1174.9" y="466.6" width="23" height="23" transform="translate(2372.8 956.2) rotate(180)"/>
    <rect class="st0" x="1151.9" y="466.6" width="23" height="23" transform="translate(2326.8 956.2) rotate(180)"/>
    <rect class="st0" x="1197.9" y="443.6" width="23" height="23" transform="translate(2418.8 910.2) rotate(180)"/>
    <rect class="st0" x="1174.9" y="443.6" width="23" height="23" transform="translate(2372.8 910.2) rotate(180)"/>
    <rect class="st0" x="1174.9" y="420.6" width="23" height="23" transform="translate(2372.8 864.2) rotate(180)"/>
    <rect class="st0" x="1151.9" y="443.6" width="23" height="23" transform="translate(2326.8 910.2) rotate(180)"/>
    <rect class="st0" x="1128.9" y="466.6" width="23" height="23" transform="translate(2280.8 956.2) rotate(180)"/>
    <rect class="st0" x="1220.9" y="374.6" width="23" height="23" transform="translate(2464.8 772.2) rotate(180)"/>
    <rect class="st0" x="1197.9" y="397.6" width="23" height="23" transform="translate(2418.8 818.2) rotate(180)"/>
    <rect class="st0" x="1174.9" y="397.6" width="23" height="23" transform="translate(2372.8 818.2) rotate(180)"/>
    <rect class="st0" x="1151.9" y="397.6" width="23" height="23" transform="translate(2326.8 818.2) rotate(180)"/>
    <rect class="st0" x="1197.9" y="374.6" width="23" height="23" transform="translate(2418.8 772.2) rotate(180)"/>
    <rect class="st0" x="1174.9" y="374.6" width="23" height="23" transform="translate(2372.8 772.2) rotate(180)"/>
    <rect class="st0" x="1151.9" y="374.6" width="23" height="23" transform="translate(2326.8 772.2) rotate(180)"/>
    <rect class="st0" x="1128.9" y="374.6" width="23" height="23" transform="translate(2280.8 772.2) rotate(180)"/>
  </g>
  <g>
    <rect class="st0" x="1003.6" y="374.6" width="115" height="115"/>
    <rect class="st0" x="1010.4" y="381.3" width="101.5" height="101.5"/>
    <rect class="st0" x="1017.1" y="388.1" width="88.1" height="88.1"/>
    <rect class="st0" x="1023.8" y="394.8" width="74.6" height="74.6"/>
    <rect class="st0" x="1030.6" y="401.5" width="61.2" height="61.2"/>
    <rect class="st0" x="1037.3" y="408.2" width="47.7" height="47.7"/>
    <rect class="st0" x="1044" y="415" width="34.2" height="34.2"/>
    <rect class="st0" x="1050.8" y="421.7" width="20.8" height="20.8"/>
  </g>
  <g>
    <rect class="st0" x="878.4" y="374.6" width="115" height="115" transform="translate(1871.8 864.2) rotate(180)"/>
    <polygon class="st0" points="978.9 432.1 993.2 489.6 964.5 489.6 978.9 432.1"/>
    <polygon class="st0" points="950.2 432.1 964.5 489.6 935.8 489.6 950.2 432.1"/>
    <polygon class="st0" points="921.5 432.1 935.8 489.6 907.1 489.6 921.5 432.1"/>
    <polygon class="st0" points="892.7 432.1 907.1 489.6 878.4 489.6 892.7 432.1"/>
    <polygon class="st0" points="978.9 432.1 993.2 374.6 964.5 374.6 978.9 432.1"/>
    <polygon class="st0" points="950.2 432.1 964.5 374.6 935.8 374.6 950.2 432.1"/>
    <polygon class="st0" points="921.5 432.1 935.8 374.6 907.1 374.6 921.5 432.1"/>
    <polygon class="st0" points="892.7 432.1 907.1 374.6 878.4 374.6 892.7 432.1"/>
  </g>
  <g>
    <rect class="st0" x="752.9" y="374.6" width="115" height="115" transform="translate(1620.9 864.2) rotate(180)"/>
    <g>
      <g>
        <polyline class="st0" points="858.8 449 858.8 412.8 838.4 412.8 838.4 383.7 848.6 383.7 848.6 449"/>
        <polyline class="st0" points="793.5 383.7 829.7 383.7 829.7 404.2 858.8 404.2 858.8 393.9 793.5 393.9"/>
      </g>
      <g>
        <polyline class="st0" points="762.1 449 762.1 412.8 782.5 412.8 782.5 383.7 772.3 383.7 772.3 449"/>
        <polyline class="st0" points="827.4 383.7 791.2 383.7 791.2 404.2 762.1 404.2 762.1 393.9 827.4 393.9"/>
      </g>
      <g>
        <polyline class="st0" points="858.8 415.2 858.8 451.4 838.4 451.4 838.4 480.5 848.6 480.5 848.6 415.2"/>
        <polyline class="st0" points="793.5 480.5 829.7 480.5 829.7 460 858.8 460 858.8 470.2 793.5 470.2"/>
      </g>
      <g>
        <polyline class="st0" points="762.1 415.2 762.1 451.4 782.5 451.4 782.5 480.5 772.3 480.5 772.3 415.2"/>
        <polyline class="st0" points="827.4 480.5 791.2 480.5 791.2 460 762.1 460 762.1 470.2 827.4 470.2"/>
      </g>
    </g>
  </g>
  <rect class="st0" x="501.7" y="374.6" width="115" height="115" transform="translate(1118.4 864.2) rotate(180)"/>
  <g>
    <rect class="st0" x="627" y="250.6" width="115" height="115" transform="translate(1368.9 616.2) rotate(180)"/>
    <line class="st0" x1="728.6" y1="250.6" x2="728.6" y2="365.6"/>
    <line class="st0" x1="715.5" y1="250.6" x2="715.5" y2="365.6"/>
    <line class="st0" x1="653.6" y1="250.6" x2="653.6" y2="365.6"/>
    <line class="st0" x1="640.5" y1="250.6" x2="640.5" y2="365.6"/>
    <line class="st0" x1="742.1" y1="352.1" x2="627.1" y2="352.1"/>
    <line class="st0" x1="742.1" y1="339" x2="627.1" y2="339"/>
    <line class="st0" x1="742.1" y1="277.2" x2="627.1" y2="277.2"/>
    <line class="st0" x1="742.1" y1="264.1" x2="627.1" y2="264.1"/>
  </g>
  <g>
    <rect class="st0" x="501.7" y="250.6" width="115" height="115" transform="translate(1118.4 616.2) rotate(180)"/>
    <g>
      <polyline class="st0" points="602.1 351.9 602.1 328.1 593.4 319.4 584.8 328.1 584.8 351.5"/>
      <polyline class="st0" points="602.1 333.4 602.1 357.3 593.4 365.9 584.8 357.3 584.8 333.8"/>
      <polyline class="st0" points="584.2 351.3 608 351.3 616.7 342.7 608 334 584.6 334"/>
      <polyline class="st0" points="602.7 351.3 578.8 351.3 570.2 342.7 578.8 334 602.3 334"/>
    </g>
    <g>
      <polyline class="st0" points="533.6 351.9 533.6 328.1 525 319.4 516.3 328.1 516.3 351.5"/>
      <polyline class="st0" points="533.6 333.4 533.6 357.3 525 365.9 516.3 357.3 516.3 333.8"/>
      <polyline class="st0" points="515.7 351.3 539.6 351.3 548.2 342.7 539.6 334 516.1 334"/>
      <polyline class="st0" points="534.2 351.3 510.4 351.3 501.7 342.7 510.4 334 533.8 334"/>
    </g>
    <g>
      <polyline class="st0" points="602.1 283.5 602.1 259.6 593.4 250.9 584.8 259.6 584.8 283.1"/>
      <polyline class="st0" points="602.1 264.9 602.1 288.8 593.4 297.5 584.8 288.8 584.8 265.3"/>
      <polyline class="st0" points="584.2 282.9 608 282.9 616.7 274.2 608 265.5 584.6 265.5"/>
      <polyline class="st0" points="602.7 282.9 578.8 282.9 570.2 274.2 578.8 265.5 602.3 265.5"/>
    </g>
    <g>
      <polyline class="st0" points="533.6 283.5 533.6 259.6 525 250.9 516.3 259.6 516.3 283.1"/>
      <polyline class="st0" points="533.6 264.9 533.6 288.8 525 297.5 516.3 288.8 516.3 265.3"/>
      <polyline class="st0" points="515.7 282.9 539.6 282.9 548.2 274.2 539.6 265.5 516.1 265.5"/>
      <polyline class="st0" points="534.2 282.9 510.4 282.9 501.7 274.2 510.4 265.5 533.8 265.5"/>
    </g>
    <polygon class="st0" points="539.4 299.9 539.4 288.3 551 288.3 559.2 280.2 567.4 288.3 579 288.3 579 299.9 587.1 308.1 579 316.3 579 327.9 579 327.9 567.4 327.9 559.2 336 551 327.9 539.4 327.9 539.4 316.3 531.3 308.1 539.4 299.9"/>
  </g>
  <g>
    <rect class="st0" x="376.4" y="250.6" width="115" height="115" transform="translate(867.8 616.2) rotate(180)"/>
    <g>
      <polyline class="st0" points="433.5 321 450.6 303.8 450.6 291.4 438.2 291.4 421.3 308.2"/>
      <polyline class="st0" points="446.8 307.7 429.6 324.8 417.2 324.8 417.2 312.3 434 295.5"/>
      <polyline class="st0" points="421 307.7 438.2 324.8 450.6 324.8 450.6 312.3 433.8 295.5"/>
      <polyline class="st0" points="434.3 321 417.2 303.8 417.2 291.4 429.6 291.4 446.5 308.2"/>
    </g>
    <line class="st0" x1="434" y1="250.6" x2="434" y2="295.7"/>
    <line class="st0" x1="434" y1="320.5" x2="434" y2="365.6"/>
    <line class="st0" x1="430" y1="250.6" x2="430" y2="291.6"/>
    <line class="st0" x1="438.1" y1="250.6" x2="438.1" y2="291.6"/>
    <line class="st0" x1="430" y1="324.5" x2="430" y2="365.6"/>
    <line class="st0" x1="438.1" y1="324.5" x2="438.1" y2="365.6"/>
    <line class="st0" x1="491.5" y1="308.1" x2="446.3" y2="308.1"/>
    <line class="st0" x1="421.8" y1="308.1" x2="376.5" y2="308.1"/>
    <line class="st0" x1="491.5" y1="304" x2="450.5" y2="304"/>
    <line class="st0" x1="491.5" y1="312.2" x2="450.5" y2="312.2"/>
    <line class="st0" x1="417.6" y1="304" x2="376.5" y2="304"/>
    <line class="st0" x1="417.6" y1="312.2" x2="376.5" y2="312.2"/>
    <rect class="st0" x="450.6" y="250.6" width="40.8" height="40.8" transform="translate(942 542) rotate(180)"/>
    <rect class="st0" x="376.4" y="250.6" width="40.8" height="40.8" transform="translate(793.6 542) rotate(180)"/>
    <rect class="st0" x="450.6" y="324.8" width="40.8" height="40.8" transform="translate(942 690.4) rotate(180)"/>
    <rect class="st0" x="376.4" y="324.8" width="40.8" height="40.8" transform="translate(793.6 690.4) rotate(180)"/>
  </g>
  <g>
    <rect class="st0" x="251.4" y="250.6" width="115" height="115" transform="translate(617.8 616.2) rotate(180)"/>
    <g>
      <g>
        <polyline class="st0" points="315.7 326.3 350.2 291.8 350.2 266.8 325.2 266.8 291.3 300.7"/>
        <polyline class="st0" points="327.1 314.9 292.7 349.4 267.6 349.4 267.6 324.4 301.5 290.4"/>
      </g>
      <g>
        <polyline class="st0" points="315.7 289.9 350.2 324.4 350.2 349.4 325.2 349.4 291.3 315.5"/>
        <polyline class="st0" points="327.1 301.3 292.7 266.8 267.6 266.8 267.6 291.8 301.5 325.7"/>
      </g>
    </g>
    <rect class="st1" x="268.3" y="267.4" width="81.3" height="81.3" transform="translate(745.2 307.5) rotate(135)"/>
  </g>
  <g>
    <rect class="st0" x="125.8" y="250.6" width="115" height="115" transform="translate(366.7 616.2) rotate(180)"/>
    <polygon class="st1" points="126 301.6 183.3 283.9 183.3 250.5 126 268.2 126 301.6"/>
    <polygon class="st1" points="183.4 250.5 240.8 268.2 240.8 301.6 183.4 283.9 183.4 250.5"/>
    <polygon class="st1" points="126 314.5 183.3 332.2 183.3 365.6 126 348 126 314.5"/>
    <polygon class="st1" points="183.4 365.6 240.8 348 240.8 314.5 183.4 332.2 183.4 365.6"/>
  </g>
  <g>
    <rect class="st0" x=".7" y="250.6" width="115" height="115" transform="translate(116.3 616.2) rotate(180)"/>
    <g>
      <polyline class="st1" points="97.6 348.3 97.6 318.9 86.9 308.2 76.2 318.9 76.2 347.8"/>
      <polyline class="st1" points="97.6 325.5 97.6 354.9 86.9 365.6 76.2 354.9 76.2 326"/>
      <polyline class="st1" points="75.4 347.6 104.9 347.6 115.6 336.9 104.9 326.2 75.9 326.2"/>
      <polyline class="st1" points="98.3 347.6 68.9 347.6 58.2 336.9 68.9 326.2 97.8 326.2"/>
    </g>
    <g>
      <polyline class="st1" points="40.2 348.3 40.2 318.9 29.5 308.2 18.8 318.9 18.8 347.8"/>
      <polyline class="st1" points="40.2 325.5 40.2 354.9 29.5 365.6 18.8 354.9 18.8 326"/>
      <polyline class="st1" points="18 347.6 47.5 347.6 58.2 336.9 47.5 326.2 18.5 326.2"/>
      <polyline class="st1" points="40.9 347.6 11.5 347.6 .8 336.9 11.5 326.2 40.4 326.2"/>
    </g>
    <g>
      <polyline class="st1" points="97.6 290.6 97.6 261.2 86.9 250.5 76.2 261.2 76.2 290.2"/>
      <polyline class="st1" points="97.6 267.8 97.6 297.2 86.9 307.9 76.2 297.2 76.2 268.3"/>
      <polyline class="st1" points="75.4 289.9 104.9 289.9 115.6 279.2 104.9 268.5 75.9 268.5"/>
      <polyline class="st1" points="98.3 289.9 68.9 289.9 58.2 279.2 68.9 268.5 97.8 268.5"/>
    </g>
    <g>
      <polyline class="st1" points="40.2 290.6 40.2 261.2 29.5 250.5 18.8 261.2 18.8 290.2"/>
      <polyline class="st1" points="40.2 267.8 40.2 297.2 29.5 307.9 18.8 297.2 18.8 268.3"/>
      <polyline class="st1" points="18 289.9 47.5 289.9 58.2 279.2 47.5 268.5 18.5 268.5"/>
      <polyline class="st1" points="40.9 289.9 11.5 289.9 .8 279.2 11.5 268.5 40.4 268.5"/>
    </g>
  </g>
  <g>
    <rect class="st0" x="627" y="374.6" width="115" height="115" transform="translate(1368.9 864.2) rotate(180)"/>
    <rect class="st0" x="657.3" y="385.8" width="54.3" height="54.3" transform="translate(1460.4 221) rotate(135)"/>
    <rect class="st0" x="657.3" y="424.2" width="54.3" height="54.3" transform="translate(1487.6 286.5) rotate(135)"/>
    <rect class="st0" x="676.5" y="405" width="54.3" height="54.3" transform="translate(895.6 1235.3) rotate(-135)"/>
    <rect class="st0" x="638.1" y="405" width="54.3" height="54.3" transform="translate(830.1 1208.1) rotate(-135)"/>
  </g>
  <g>
    <g class="st6">
      <g>
        <g>
          <rect class="st0" x="495.5" y="368.7" width="12.1" height="12.1" transform="translate(-118.1 464.4) rotate(-45)"/>
          <rect class="st0" x="490.5" y="363.7" width="22.1" height="22.1" transform="translate(-118.1 464.4) rotate(-45)"/>
          <rect class="st0" x="485.5" y="358.7" width="32" height="32" transform="translate(-118.1 464.4) rotate(-45)"/>
          <rect class="st0" x="480.5" y="353.7" width="42" height="42" transform="translate(-118.1 464.4) rotate(-45)"/>
          <rect class="st0" x="475.6" y="348.8" width="51.9" height="51.9" transform="translate(-118.1 464.4) rotate(-45)"/>
          <rect class="st0" x="470.6" y="343.8" width="61.9" height="61.9" transform="translate(-118.1 464.4) rotate(-45)"/>
          <rect class="st0" x="465.6" y="338.8" width="71.8" height="71.8" transform="translate(-118.1 464.4) rotate(-45)"/>
          <rect class="st0" x="460.6" y="333.8" width="81.8" height="81.8" transform="translate(-118.1 464.4) rotate(-45)"/>
        </g>
        <g>
          <rect class="st0" x="610.5" y="368.7" width="12.1" height="12.1" transform="translate(-84.4 545.7) rotate(-45)"/>
          <rect class="st0" x="605.5" y="363.7" width="22.1" height="22.1" transform="translate(-84.4 545.7) rotate(-45)"/>
          <rect class="st0" x="600.5" y="358.7" width="32" height="32" transform="translate(-84.4 545.7) rotate(-45)"/>
          <rect class="st0" x="595.5" y="353.7" width="42" height="42" transform="translate(-84.4 545.7) rotate(-45)"/>
          <rect class="st0" x="590.6" y="348.8" width="51.9" height="51.9" transform="translate(-84.4 545.7) rotate(-45)"/>
          <rect class="st0" x="585.6" y="343.8" width="61.9" height="61.9" transform="translate(-84.4 545.7) rotate(-45)"/>
          <rect class="st0" x="580.6" y="338.8" width="71.8" height="71.8" transform="translate(-84.4 545.7) rotate(-45)"/>
          <rect class="st0" x="575.6" y="333.8" width="81.8" height="81.8" transform="translate(-84.4 545.7) rotate(-45)"/>
        </g>
        <g>
          <rect class="st0" x="495.5" y="484" width="12.1" height="12.1" transform="translate(-199.6 498.2) rotate(-45)"/>
          <rect class="st0" x="490.5" y="479" width="22.1" height="22.1" transform="translate(-199.6 498.2) rotate(-45)"/>
          <rect class="st0" x="485.5" y="474" width="32" height="32" transform="translate(-199.6 498.2) rotate(-45)"/>
          <rect class="st0" x="480.5" y="469.1" width="42" height="42" transform="translate(-199.6 498.2) rotate(-45)"/>
          <rect class="st0" x="475.6" y="464.1" width="51.9" height="51.9" transform="translate(-199.6 498.2) rotate(-45)"/>
          <rect class="st0" x="470.6" y="459.1" width="61.9" height="61.9" transform="translate(-199.6 498.2) rotate(-45)"/>
          <rect class="st0" x="465.6" y="454.1" width="71.8" height="71.8" transform="translate(-199.6 498.2) rotate(-45)"/>
          <rect class="st0" x="460.6" y="449.2" width="81.8" height="81.8" transform="translate(-199.6 498.2) rotate(-45)"/>
        </g>
        <g>
          <rect class="st0" x="610.5" y="484" width="12.1" height="12.1" transform="translate(-166 579.5) rotate(-45)"/>
          <rect class="st0" x="605.5" y="479" width="22.1" height="22.1" transform="translate(-166 579.5) rotate(-45)"/>
          <rect class="st0" x="600.5" y="474" width="32" height="32" transform="translate(-166 579.5) rotate(-45)"/>
          <rect class="st0" x="595.5" y="469.1" width="42" height="42" transform="translate(-166 579.5) rotate(-45)"/>
          <rect class="st0" x="590.6" y="464.1" width="51.9" height="51.9" transform="translate(-166 579.5) rotate(-45)"/>
          <rect class="st0" x="585.6" y="459.1" width="61.9" height="61.9" transform="translate(-166 579.5) rotate(-45)"/>
          <rect class="st0" x="580.6" y="454.1" width="71.8" height="71.8" transform="translate(-166 579.5) rotate(-45)"/>
          <rect class="st0" x="575.6" y="449.2" width="81.8" height="81.8" transform="translate(-166 579.5) rotate(-45)"/>
        </g>
      </g>
    </g>
    <rect class="st0" x="501.7" y="374.6" width="115" height="115" transform="translate(1118.3 864.2) rotate(180)"/>
  </g>
  <g>
    <rect class="st0" x="376.4" y="374.6" width="115" height="115" transform="translate(867.9 864.2) rotate(180)"/>
    <line class="st0" x1="433.9" y1="374.6" x2="433.9" y2="489.6"/>
    <line class="st0" x1="491.4" y1="432.1" x2="376.4" y2="432.1"/>
    <rect class="st0" x="385.2" y="412" width="40.4" height="40.4" transform="translate(997.6 451.2) rotate(135)"/>
    <rect class="st0" x="442.2" y="412" width="40.4" height="40.4" transform="translate(1094.9 410.9) rotate(135)"/>
    <line class="st0" x1="462.4" y1="374.6" x2="462.4" y2="489.6"/>
    <line class="st0" x1="405.4" y1="374.6" x2="405.4" y2="489.6"/>
  </g>
  <g>
    <rect class="st0" x="251.2" y="374.6" width="115" height="115" transform="translate(617.4 864.2) rotate(180)"/>
    <line class="st0" x1="366.2" y1="374.6" x2="251.2" y2="489.6"/>
    <line class="st0" x1="353.7" y1="374.6" x2="251.2" y2="477.1"/>
    <line class="st0" x1="366.2" y1="387.1" x2="263.7" y2="489.6"/>
    <line class="st0" x1="366.2" y1="489.6" x2="251.2" y2="374.6"/>
    <line class="st0" x1="353.7" y1="489.6" x2="251.2" y2="387.1"/>
    <line class="st0" x1="366.2" y1="477.1" x2="263.7" y2="374.6"/>
  </g>
  <g>
    <rect class="st0" x="125.9" y="374.6" width="115" height="115" transform="translate(366.9 864.2) rotate(180)"/>
    <g>
      <polyline class="st1" points="183.4 374.7 143.3 391.8 126.2 432"/>
      <polyline class="st1" points="240.6 432 200.5 414.8 183.4 374.7"/>
      <polyline class="st1" points="183.4 489.2 143.2 472.1 126.1 432"/>
      <polyline class="st1" points="240.6 432.2 200.5 449.3 183.4 489.5"/>
      <polyline class="st1" points="240.6 432.2 223.5 472.4 183.4 489.5"/>
      <polyline class="st1" points="183.3 374.9 166.2 415 126 432.1"/>
      <polyline class="st1" points="183.4 374.7 223.6 391.8 240.6 432"/>
      <polyline class="st1" points="126 432.1 166.2 449.2 183.3 489.3"/>
    </g>
  </g>
  <g>
    <rect class="st0" x=".7" y="374.6" width="115" height="115" transform="translate(116.3 864.2) rotate(180)"/>
    <polyline class="st1" points="58.2 489.6 58.2 432.1 115.6 374.6"/>
    <polyline class="st1" points="58.2 489.6 58.2 432.1 .8 374.6"/>
    <polyline class="st1" points="75.6 489.6 75.6 449.5 115.7 409.3"/>
    <polyline class="st1" points="40.7 489.6 40.7 449.5 .7 409.3"/>
    <polyline class="st1" points="75.6 374.6 58.2 390.3 40.7 374.6"/>
  </g>
</svg>