<?xml version="1.0" encoding="UTF-8"?>
<svg id="Layer_1" xmlns="http://www.w3.org/2000/svg" version="1.1" viewBox="0 0 126.9 126.9">
  <!-- Generator: Adobe Illustrator 30.3.0, SVG Export Plug-In . SVG Version: 2.1.3 Build 182)  -->
  <defs>
    <style>
      .st0 {
        fill: #5c5a5d;
      }
    </style>
  </defs>
  <path class="st0" d="M86.3,94.8h-10.4c-4.8,0-4.9-4.3-4.9-4.5v-5.5c8.7-3.1,15.4-10.6,17.4-19.7.3,0,.6,0,.9,0,4.1,0,7.5-3.4,7.5-7.5s-1.1-4.4-2.8-5.8v-.2c.2-8.9-2.7-17-8.3-23-5.9-6.2-14.4-9.6-23.8-9.6s-18.1,3.4-24,9.7c-5.6,6-8.4,13.9-7.9,22.9-1.8,1.4-3,3.5-3,5.9,0,4.1,3.4,7.5,7.5,7.5s.6,0,.9,0c2,9.2,8.7,16.6,17.4,19.7v5.5c0,.2,0,4.5-4.9,4.5h-10.4c-7.6,0-12.3,8.9-13.9,15.4,1,.9,2.1,1.7,3.1,2.5.8-5.2,4.9-14.3,10.8-14.3h10.4c1.5,0,2.8-.3,3.8-.8,2.4,3.2,6.1,5.1,10.2,5.1s7.8-1.9,10.2-5.1c1.1.5,2.3.8,3.8.8h10.4c5.9,0,10,9.1,10.8,14.3,1.1-.8,2.1-1.6,3.1-2.5-1.6-6.4-6.3-15.4-13.9-15.4ZM40.5,31.3c5.2-5.5,12.8-8.6,21.4-8.6s16,3,21.2,8.5c4.8,5,7.3,11.6,7.3,19.1-.3,0-.7-.1-1-.1-.8,0-1.7.2-2.5.4-.2-3.7-.8-6.8-1.9-9.5-.3-.8-1.1-1.2-1.9-1.1-4.5.5-10.8-2.4-11.8-4.4-.3-.6-.9-.9-1.5-.9-.6,0-1.2.3-1.6.9-2,3.4-12.7,9.7-26.3,4.9-.9-.3-1.8,0-2.2.9-1.5,3.1-2.2,5.6-2.6,9.3-.8-.3-1.8-.5-2.6-.5s-.6,0-.9,0c0-7.5,2.3-14,7-19ZM38.3,59.2c0-1-.8-1.8-1.8-1.8s-1.8.8-1.8,1.8,0,1.6.1,2.4c-.1,0-.2,0-.4,0-2.2,0-3.9-1.7-3.9-3.9s1.7-3.9,3.9-3.9,2.5.7,2.7,1.1c0,0,0,0,0,0,0,.1.2.2.3.3,0,0,.2.1.3.2,0,0,.2,0,.3.1.1,0,.2,0,.4,0,0,0,0,0,.1,0,0,0,0,0,0,0,0,0,.1,0,.2,0,.1,0,.2,0,.3,0,.1,0,.2,0,.3-.1,0,0,.1,0,.2,0,0,0,0,0,0,0,.1,0,.2-.2.3-.3,0,0,.1-.2.2-.2,0,0,0-.2.1-.3,0-.1,0-.2,0-.3,0,0,0,0,0-.1.2-4.4.7-6.9,1.8-9.6,12.4,3.7,23.1-.6,27.5-5.1,2.8,2.5,8,4.4,12.3,4.4.9,2.8,1.3,6.1,1.3,10.2s0,0,0,.1c0,.1,0,.2,0,.4,0,.1,0,.2.1.3,0,0,.1.2.2.3,0,0,.2.2.3.3,0,0,0,0,.1.1,0,0,.1,0,.2,0,.1,0,.2.1.3.1.1,0,.2,0,.3,0,0,0,.1,0,.2,0s.1,0,.2,0c.1,0,.2,0,.3,0,.1,0,.2,0,.3-.1,0,0,.2-.1.3-.2,0,0,.2-.2.3-.2,0,0,0,0,.1-.1.3-.4,1.5-1.1,2.7-1.1,2.1,0,3.9,1.7,3.9,3.9s-1.7,3.9-3.9,3.9-.2,0-.4,0c0-.8.1-1.6.1-2.4s-.8-1.8-1.8-1.8-1.8.8-1.8,1.8c0,13-10.6,23.6-23.6,23.6s-23.6-10.6-23.6-23.6ZM61.9,99.1c-2.9,0-5.7-1.4-7.4-3.7,1.3-1.6,1.8-3.5,1.8-5.1v-4.5c1.8.4,3.7.6,5.6.6s3.8-.2,5.6-.6v4.5c0,1.6.5,3.5,1.8,5.1-1.7,2.3-4.4,3.7-7.4,3.7Z"/>
</svg>