<?xml version="1.0" encoding="UTF-8"?>
<svg id="Layer_1" xmlns="http://www.w3.org/2000/svg" version="1.1" viewBox="0 0 271.1 273.3">
  <!-- Generator: Adobe Illustrator 30.3.0, SVG Export Plug-In . SVG Version: 2.1.3 Build 182)  -->
  <defs>
    <style>
      .st0 {
        fill: #cde0f2;
      }
    </style>
  </defs>
  <g>
    <rect class="st0" x="134.7" y="23.5" width="1.7" height="11.1"/>
    <rect class="st0" x="135.3" y="23.5" width=".6" height="11.1"/>
    <rect class="st0" x="125.9" y="23.9" width=".6" height="11.1" transform="translate(-2.1 11.1) rotate(-5)"/>
    <rect class="st0" x="116.6" y="25.1" width=".6" height="11.1" transform="translate(-3.6 20.8) rotate(-10)"/>
    <rect class="st0" x="107.4" y="27.2" width=".6" height="11.1" transform="translate(-4.8 29) rotate(-15)"/>
    <rect class="st0" x="98.5" y="30" width=".6" height="11.1" transform="translate(-6.2 35.9) rotate(-20)"/>
    <rect class="st0" x="89.8" y="33.6" width=".6" height="11.1" transform="translate(-8.1 41.7) rotate(-25)"/>
    <rect class="st0" x="81.5" y="37.9" width=".6" height="11.1" transform="translate(-10.8 46.7) rotate(-30)"/>
    <rect class="st0" x="73.5" y="43" width=".6" height="11.1" transform="translate(-14.5 51.1) rotate(-35)"/>
    <rect class="st0" x="66.1" y="48.7" width=".6" height="11.1" transform="translate(-19.3 55.4) rotate(-40)"/>
    <rect class="st0" x="59.2" y="55" width=".6" height="11.1" transform="translate(-25.4 59.8) rotate(-45)"/>
    <rect class="st0" x="52.8" y="62" width=".6" height="11.1" transform="translate(-32.7 64.8) rotate(-50)"/>
    <rect class="st0" x="47.1" y="69.4" width=".6" height="11.1" transform="translate(-41.2 70.8) rotate(-55)"/>
    <rect class="st0" x="42.1" y="77.3" width=".6" height="11.1" transform="translate(-50.6 78.1) rotate(-60)"/>
    <rect class="st0" x="37.7" y="85.6" width=".6" height="11.1" transform="translate(-60.7 87.1) rotate(-65)"/>
    <rect class="st0" x="34.1" y="94.3" width=".6" height="11.1" transform="translate(-71.2 98.1) rotate(-70)"/>
    <rect class="st0" x="31.3" y="103.3" width=".6" height="11.1" transform="translate(-81.7 111.2) rotate(-75)"/>
    <rect class="st0" x="29.3" y="112.4" width=".6" height="11.1" transform="translate(-91.7 126.6) rotate(-80)"/>
    <rect class="st0" x="28.1" y="121.7" width=".6" height="11.1" transform="translate(-100.9 144.5) rotate(-85)"/>
    <rect class="st0" x="27.7" y="131.1" width=".6" height="11.1" transform="translate(-108.7 164.6) rotate(-90)"/>
    <rect class="st0" x="28.1" y="140.5" width=".6" height="11.1" transform="translate(-114.7 187) rotate(-95)"/>
    <rect class="st0" x="29.3" y="149.8" width=".6" height="11.1" transform="translate(-118.3 211.5) rotate(-100)"/>
    <rect class="st0" x="31.3" y="159" width=".6" height="11.1" transform="translate(-119.1 237.6) rotate(-105)"/>
    <rect class="st0" x="34.1" y="167.9" width=".6" height="11.1" transform="translate(-116.8 265.2) rotate(-110)"/>
    <rect class="st0" x="37.7" y="176.6" width=".6" height="11.1" transform="translate(-111 293.6) rotate(-115)"/>
    <rect class="st0" x="42.1" y="184.9" width=".6" height="11.1" transform="translate(-101.4 322.4) rotate(-120)"/>
    <rect class="st0" x="47.1" y="192.8" width=".6" height="11.1" transform="translate(-87.9 351) rotate(-125)"/>
    <rect class="st0" x="52.8" y="200.3" width=".6" height="11.1" transform="translate(-70.4 378.8) rotate(-130)"/>
    <rect class="st0" x="59.2" y="207.2" width=".6" height="11.1" transform="translate(-48.9 405.3) rotate(-135)"/>
    <rect class="st0" x="66.1" y="213.5" width=".6" height="11.1" transform="translate(-23.6 429.6) rotate(-140)"/>
    <rect class="st0" x="73.5" y="219.3" width=".6" height="11.1" transform="translate(5.4 451.3) rotate(-145)"/>
    <rect class="st0" x="81.5" y="224.3" width=".6" height="11.1" transform="translate(37.6 469.8) rotate(-150)"/>
    <rect class="st0" x="89.8" y="228.6" width=".6" height="11.1" transform="translate(72.8 484.5) rotate(-155)"/>
    <rect class="st0" x="98.5" y="232.2" width=".6" height="11.1" transform="translate(110.2 495) rotate(-160)"/>
    <rect class="st0" x="107.4" y="235" width=".6" height="11.1" transform="translate(149.5 500.9) rotate(-165)"/>
    <rect class="st0" x="116.6" y="237.1" width=".6" height="11.1" transform="translate(189.8 501.9) rotate(-170)"/>
    <rect class="st0" x="125.9" y="238.3" width=".6" height="11.1" transform="translate(230.6 497.8) rotate(-175)"/>
    <rect class="st0" x="135.3" y="238.7" width=".6" height="11.1" transform="translate(271.1 488.5) rotate(-180)"/>
    <rect class="st0" x="144.6" y="238.3" width=".6" height="11.1" transform="translate(310.6 474.2) rotate(175)"/>
    <rect class="st0" x="153.9" y="237.1" width=".6" height="11.1" transform="translate(348.3 454.8) rotate(170)"/>
    <rect class="st0" x="163.1" y="235" width=".6" height="11.1" transform="translate(383.5 430.7) rotate(165)"/>
    <rect class="st0" x="172.1" y="232.2" width=".6" height="11.1" transform="translate(415.6 402.3) rotate(160)"/>
    <rect class="st0" x="180.7" y="228.6" width=".6" height="11.1" transform="translate(444.1 369.9) rotate(155)"/>
    <rect class="st0" x="189.1" y="224.3" width=".6" height="11.1" transform="translate(468.3 334.2) rotate(150)"/>
    <rect class="st0" x="197" y="219.3" width=".6" height="11.1" transform="translate(487.8 295.8) rotate(145)"/>
    <rect class="st0" x="204.4" y="213.5" width=".6" height="11.1" transform="translate(502.4 255.3) rotate(140)"/>
    <rect class="st0" x="211.3" y="207.2" width=".6" height="11.1" transform="translate(511.7 213.5) rotate(135)"/>
    <rect class="st0" x="217.7" y="200.3" width=".6" height="11.1" transform="translate(515.8 171.2) rotate(130)"/>
    <rect class="st0" x="223.4" y="192.8" width=".6" height="11.1" transform="translate(514.5 128.9) rotate(125)"/>
    <rect class="st0" x="228.4" y="184.9" width=".6" height="11.1" transform="translate(508.1 87.6) rotate(120)"/>
    <rect class="st0" x="232.8" y="176.6" width=".6" height="11.1" transform="translate(496.7 47.9) rotate(115)"/>
    <rect class="st0" x="236.4" y="167.9" width=".6" height="11.1" transform="translate(480.6 10.4) rotate(110)"/>
    <rect class="st0" x="239.2" y="159" width=".6" height="11.1" transform="translate(460.4 -24.2) rotate(105)"/>
    <rect class="st0" x="241.2" y="149.8" width=".6" height="11.1" transform="translate(436.5 -55.5) rotate(100)"/>
    <rect class="st0" x="242.4" y="140.5" width=".6" height="11.1" transform="translate(409.4 -83) rotate(95)"/>
    <rect class="st0" x="242.9" y="131.1" width=".6" height="11.1" transform="translate(379.8 -106.5) rotate(90)"/>
    <rect class="st0" x="242.4" y="121.7" width=".6" height="11.1" transform="translate(348.4 -125.6) rotate(85)"/>
    <rect class="st0" x="241.2" y="112.4" width=".6" height="11.1" transform="translate(315.8 -140.4) rotate(80)"/>
    <rect class="st0" x="239.2" y="103.3" width=".6" height="11.1" transform="translate(282.6 -150.7) rotate(75)"/>
    <rect class="st0" x="236.4" y="94.3" width=".6" height="11.1" transform="translate(249.6 -156.7) rotate(70)"/>
    <rect class="st0" x="232.8" y="85.6" width=".6" height="11.1" transform="translate(217.2 -158.6) rotate(65)"/>
    <rect class="st0" x="228.4" y="77.3" width=".6" height="11.1" transform="translate(186.1 -156.7) rotate(60)"/>
    <rect class="st0" x="223.4" y="69.4" width=".6" height="11.1" transform="translate(156.8 -151.3) rotate(55)"/>
    <rect class="st0" x="217.7" y="62" width=".6" height="11.1" transform="translate(129.6 -142.9) rotate(50)"/>
    <rect class="st0" x="211.3" y="55" width=".6" height="11.1" transform="translate(104.8 -131.9) rotate(45)"/>
    <rect class="st0" x="204.4" y="48.7" width=".6" height="11.1" transform="translate(82.8 -118.9) rotate(40)"/>
    <rect class="st0" x="197" y="43" width=".6" height="11.1" transform="translate(63.5 -104.4) rotate(35)"/>
    <rect class="st0" x="189.1" y="37.9" width=".6" height="11.1" transform="translate(47.1 -88.9) rotate(30)"/>
    <rect class="st0" x="180.7" y="33.6" width=".6" height="11.1" transform="translate(33.5 -72.8) rotate(25)"/>
    <rect class="st0" x="172.1" y="30" width=".6" height="11.1" transform="translate(22.6 -56.8) rotate(20)"/>
    <rect class="st0" x="163.1" y="27.2" width=".6" height="11.1" transform="translate(14 -41.2) rotate(15)"/>
    <rect class="st0" x="153.9" y="25.1" width=".6" height="11.1" transform="translate(7.7 -26.3) rotate(10)"/>
    <rect class="st0" x="144.6" y="23.9" width=".6" height="11.1" transform="translate(3.1 -12.5) rotate(5)"/>
    <rect class="st0" x="58.6" y="55" width="1.7" height="11.1" transform="translate(-25.4 59.8) rotate(-45)"/>
    <rect class="st0" x="27.1" y="131.1" width="1.7" height="11.1" transform="translate(-108.7 164.6) rotate(-90)"/>
    <rect class="st0" x="58.6" y="207.2" width="1.7" height="11.1" transform="translate(-48.9 405.3) rotate(-135)"/>
    <rect class="st0" x="134.7" y="238.7" width="1.7" height="11.1" transform="translate(271.1 488.5) rotate(-180)"/>
    <rect class="st0" x="210.8" y="207.2" width="1.7" height="11.1" transform="translate(511.7 213.5) rotate(135)"/>
    <rect class="st0" x="242.3" y="131.1" width="1.7" height="11.1" transform="translate(379.8 -106.5) rotate(90)"/>
    <rect class="st0" x="210.8" y="55" width="1.7" height="11.1" transform="translate(104.8 -131.9) rotate(45)"/>
  </g>
  <g>
    <circle class="st0" cx="135.6" cy="11.2" r="2.3"/>
    <circle class="st0" cx="103.1" cy="15.5" r="2.3"/>
    <circle class="st0" cx="72.8" cy="28" r="2.3"/>
    <circle class="st0" cx="46.8" cy="48" r="2.3"/>
    <circle class="st0" cx="26.9" cy="73.9" r="2.3"/>
    <circle class="st0" cx="14.4" cy="104.2" r="2.3"/>
    <circle class="st0" cx="10.1" cy="136.7" r="2.3"/>
    <circle class="st0" cx="14.4" cy="169.1" r="2.3"/>
    <circle class="st0" cx="26.9" cy="199.4" r="2.3"/>
    <circle class="st0" cx="46.8" cy="225.4" r="2.3"/>
    <circle class="st0" cx="72.8" cy="245.3" r="2.3"/>
    <circle class="st0" cx="103.1" cy="257.9" r="2.3"/>
    <circle class="st0" cx="135.6" cy="262.1" r="2.3"/>
    <circle class="st0" cx="168" cy="257.9" r="2.3"/>
    <circle class="st0" cx="198.3" cy="245.3" r="2.3"/>
    <circle class="st0" cx="224.3" cy="225.4" r="2.3"/>
    <circle class="st0" cx="244.2" cy="199.4" r="2.3"/>
    <circle class="st0" cx="256.7" cy="169.1" r="2.3"/>
    <circle class="st0" cx="261" cy="136.7" r="2.3"/>
    <circle class="st0" cx="256.7" cy="104.2" r="2.3"/>
    <circle class="st0" cx="244.2" cy="73.9" r="2.3"/>
    <circle class="st0" cx="224.3" cy="48" r="2.3"/>
    <circle class="st0" cx="198.3" cy="28" r="2.3"/>
    <circle class="st0" cx="168" cy="15.5" r="2.3"/>
  </g>
</svg>