<?xml version="1.0" encoding="UTF-8"?>
<svg id="Layer_1" xmlns="http://www.w3.org/2000/svg" version="1.1" viewBox="0 0 126.9 126.9">
  <!-- Generator: Adobe Illustrator 30.3.0, SVG Export Plug-In . SVG Version: 2.1.3 Build 182)  -->
  <defs>
    <style>
      .st0 {
        fill: none;
      }

      .st1 {
        fill: #5c5a5d;
      }
    </style>
  </defs>
  <path class="st0" d="M82.5,89.3h-8.2c-1.2,0-2.2-.2-3-.6-1.9,2.5-4.8,4-8,4s-6.2-1.5-8-4c-.8.4-1.8.6-3,.6h-8.2c-4.5,0-7.6,6.6-8.4,10.8,7.7,5.8,17.3,9.2,27.6,9.2s19.9-3.4,27.6-9.2c-.8-4.1-3.9-10.8-8.4-10.8Z"/>
  <path class="st0" d="M45.3,52.7c4.8-2.3,9.8-9.9,9.8-12.5s.5-1.3,1.2-1.4c.7,0,1.4.4,1.5,1,1.4,5.6,14.2,12.7,23.1,13,1-.8,2.5-1.4,3.9-1.4s1.5.2,2.1.4c0-13-10.7-23.6-23.8-23.6s-23.7,10.6-23.8,23.6c.7-.3,1.4-.4,2.1-.4,1.3,0,2.8.5,3.7,1.3Z"/>
  <path class="st0" d="M42.3,63.1c-.2,0-.5,0-.7,0-.8,0-1.5-.2-2.1-.4v25.3c1.3-.9,2.8-1.5,4.5-1.5h8.2c3.8,0,3.9-3.4,3.9-3.5v-4.3c-6.9-2.5-12.1-8.3-13.7-15.5Z"/>
  <path class="st0" d="M84.2,63.1c-1.6,7.2-6.9,13.1-13.7,15.5v4.3c0,.1,0,3.5,3.9,3.5h8.2c1.7,0,3.2.6,4.5,1.5v-25.3c-.7.3-1.4.4-2.1.4s-.5,0-.7,0Z"/>
  <path class="st0" d="M84.9,54.2c-1,0-1.9.5-2.1.8,0,0,0,0,0,0,0,0-.1.1-.2.2,0,0-.1.1-.2.1,0,0-.2,0-.2,0,0,0-.2,0-.3,0,0,0,0,0-.1,0-8.7,0-20.2-5.8-24.7-11.8-2.2,4.7-7.6,11-12.3,12.1-.1,0-.2,0-.3,0-.6,0-1.2-.4-1.4-1.1,0-.2,0-.3,0-.5-.4-.2-.8-.3-1.2-.3-1.7,0-3.1,1.4-3.1,3.1s1.4,3.1,3.1,3.1.2,0,.3,0c0-.6,0-1.2,0-1.9s.6-1.4,1.4-1.4,1.4.6,1.4,1.4c0,10.3,8.4,18.6,18.6,18.6s18.6-8.4,18.6-18.6.6-1.4,1.4-1.4,1.4.6,1.4,1.4,0,1.2,0,1.9c0,0,.2,0,.3,0,1.7,0,3.1-1.4,3.1-3.1s-1.4-3.1-3.1-3.1ZM63.2,71.9c-2.2,0-4.4-1.1-4.4-3s.6-1.4,1.4-1.4,1.3.5,1.4,1.2c.2.2.9.4,1.6.4s1.4-.3,1.6-.4c.1-.7.7-1.2,1.4-1.2s1.4.6,1.4,1.4c0,1.9-2.2,3-4.4,3Z"/>
  <path class="st0" d="M63.2,17.1c-25.5,0-46.1,20.6-46.1,46.1s6.2,26.5,16,34.9c.6-2.4,1.8-5.1,3.5-7.3v-30.3c-.6-.9-.9-2-.9-3.2s.4-2.3.9-3.2v-2.2c0-14.7,11.9-26.6,26.6-26.6s26.6,11.9,26.6,26.6v2.2c.6.9.9,2,.9,3.2s-.4,2.3-.9,3.2v30.3s0,0,0,0c1.7,2.2,2.9,5,3.5,7.3,9.8-8.5,16-21,16-34.9,0-25.5-20.6-46.1-46.1-46.1Z"/>
  <path class="st0" d="M67.6,79.4c-1.4.3-2.9.5-4.4.5s-3-.2-4.4-.5v3.5c0,1.2-.4,2.8-1.4,4,1.3,1.8,3.5,2.9,5.8,2.9s4.5-1.1,5.8-2.9c-1-1.2-1.4-2.8-1.4-4v-3.5Z"/>
  <path class="st1" d="M66.2,67.5c-.7,0-1.3.5-1.4,1.2-.2.2-.9.4-1.6.4s-1.4-.3-1.6-.4c-.1-.7-.7-1.2-1.4-1.2s-1.4.6-1.4,1.4c0,1.9,2.2,3,4.4,3s4.4-1.1,4.4-3-.6-1.4-1.4-1.4Z"/>
  <path class="st1" d="M89.8,90.7v-30.3c.6-.9.9-2,.9-3.2s-.4-2.3-.9-3.2v-2.2c0-14.7-11.9-26.6-26.6-26.6s-26.6,11.9-26.6,26.6v2.2c-.6.9-.9,2-.9,3.2s.4,2.3.9,3.2v30.3c-1.7,2.2-2.8,4.9-3.5,7.3.8.7,1.6,1.3,2.4,2,.8-4.1,3.9-10.8,8.4-10.8h8.2c1.2,0,2.2-.2,3-.6,1.9,2.5,4.8,4,8,4s6.2-1.5,8-4c.8.4,1.8.6,3,.6h8.2c4.5,0,7.6,6.6,8.4,10.8.8-.6,1.6-1.3,2.4-2-.6-2.4-1.8-5.1-3.5-7.3,0,0,0,0,0,0ZM63.2,28.2c13.1,0,23.7,10.6,23.8,23.6-.7-.3-1.4-.4-2.1-.4-1.4,0-2.9.6-3.9,1.4-8.9-.3-21.7-7.4-23.1-13-.2-.7-.8-1.1-1.5-1-.7,0-1.2.7-1.2,1.4,0,2.7-5,10.2-9.8,12.5-1-.8-2.4-1.3-3.7-1.3s-1.5.2-2.1.4c0-13,10.7-23.6,23.8-23.6ZM56,83c0,.1,0,3.5-3.9,3.5h-8.2c-1.7,0-3.2.6-4.5,1.5v-25.3c.7.3,1.4.4,2.1.4s.5,0,.7,0c1.6,7.2,6.9,13.1,13.7,15.5v4.3ZM63.2,89.9c-2.3,0-4.5-1.1-5.8-2.9,1-1.2,1.4-2.8,1.4-4v-3.5c1.4.3,2.9.5,4.4.5s3-.2,4.4-.5v3.5c0,1.2.4,2.8,1.4,4-1.3,1.8-3.5,2.9-5.8,2.9ZM87,88c-1.3-.9-2.8-1.5-4.5-1.5h-8.2c-3.8,0-3.9-3.4-3.9-3.5v-4.3c6.9-2.5,12.1-8.3,13.7-15.5.2,0,.5,0,.7,0,.8,0,1.5-.2,2.1-.4v25.3ZM84.9,60.3c0,0-.2,0-.3,0,0-.6,0-1.2,0-1.9s-.6-1.4-1.4-1.4-1.4.6-1.4,1.4c0,10.3-8.4,18.6-18.6,18.6s-18.6-8.4-18.6-18.6-.6-1.4-1.4-1.4-1.4.6-1.4,1.4,0,1.2,0,1.9c0,0-.2,0-.3,0-1.7,0-3.1-1.4-3.1-3.1s1.4-3.1,3.1-3.1.9.1,1.2.3c0,.1,0,.3,0,.5.2.6.7,1.1,1.4,1.1s.2,0,.3,0c4.7-1.2,10.1-7.4,12.3-12.1,4.5,6,16,11.8,24.7,11.8s0,0,.1,0c0,0,.2,0,.3,0,0,0,.2,0,.2,0,0,0,.1,0,.2-.1,0,0,.1-.1.2-.2,0,0,0,0,0,0,.2-.3,1.2-.8,2.1-.8,1.7,0,3.1,1.4,3.1,3.1s-1.4,3.1-3.1,3.1Z"/>
</svg>