<?xml version="1.0" encoding="UTF-8"?>
<svg id="Layer_1" xmlns="http://www.w3.org/2000/svg" version="1.1" viewBox="0 0 126.9 126.9">
  <!-- Generator: Adobe Illustrator 30.3.0, SVG Export Plug-In . SVG Version: 2.1.3 Build 182)  -->
  <defs>
    <style>
      .st0 {
        fill: none;
      }

      .st1 {
        fill: #5c5a5d;
      }
    </style>
  </defs>
  <path class="st0" d="M82.1,58.7c0-.8.6-1.4,1.4-1.4s1.4.6,1.4,1.4,0,1.2,0,1.9c0,0,.2,0,.3,0,1.7,0,3.1-1.4,3.1-3.1s-1.4-3.1-3.1-3.1-1.9.5-2.1.8c0,0,0,0,0,0,0,0-.1.1-.2.2,0,0-.2.1-.2.2,0,0,0,0-.1,0,0,0,0,0-.1,0,0,0-.2,0-.2,0,0,0,0,0-.1,0,0,0-.1,0-.2,0,0,0,0,0-.1,0-.2,0-.3-.1-.5-.2,0,0,0,0,0,0,0,0,0,0,0,0-.1,0-.2-.2-.3-.3,0,0,0,0,0-.1,0,0,0,0,0-.1-.8-2.1-1.5-4.1-2.1-5.8-.6-1.7-1.8-2.6-3.9-2.6h-22.1c-2.1,0-3.3.8-3.9,2.6-.6,1.8-1.2,3.7-2.1,5.8,0,0,0,0,0,.1,0,0,0,.2-.2.2,0,0-.1.1-.2.2,0,0,0,0,0,0,0,0,0,0-.1,0,0,0-.2,0-.3.1,0,0-.2,0-.3,0,0,0-.2,0-.3,0,0,0-.2,0-.3,0,0,0,0,0-.1,0,0,0,0,0-.1,0,0,0-.2,0-.2-.2,0,0-.1-.1-.2-.2,0,0,0,0,0,0-.2-.3-1.2-.8-2.1-.8-1.7,0-3.1,1.4-3.1,3.1s1.4,3.1,3.1,3.1.2,0,.3,0c0-.6,0-1.2,0-1.9s.6-1.4,1.4-1.4,1.4.6,1.4,1.4c0,10.3,8.4,18.6,18.6,18.6s18.6-8.4,18.6-18.6ZM57.5,69.2c0-.8.6-1.4,1.4-1.4s1.1.4,1.3.9c.6.3,2.2.7,3.3.7s2.7-.4,3.3-.7c.2-.5.7-.9,1.3-.9s1.4.6,1.4,1.4c0,2.8-5.9,3-6,3s-6-.2-6-3Z"/>
  <path class="st0" d="M63.5,17.3c-25.5,0-46.1,20.7-46.1,46.1s6.2,26.5,16,35c1.3-5,5-11.7,10.8-11.7h8.2c3.8,0,3.9-3.4,3.9-3.5v-4.3c-6.9-2.5-12.1-8.3-13.7-15.5-.2,0-.5,0-.7,0-3.2,0-5.9-2.6-5.9-5.9s.7-3.1,1.7-4.2c0,0,0-.1,0-.2,0-.9.5-1.5,1-2-.4-.4-1-1.1-1-2,0-.9.8-1.5,1.3-1.8-.4-.5-.9-1.2-.7-2.1.2-.9,1-1.3,1.5-1.6-.3-.6-.7-1.4-.3-2.2.4-.9,1.2-1.2,1.8-1.4-.2-.6-.4-1.5,0-2.2.5-.8,1.4-.9,2-1,0-.6-.2-1.5.5-2.2.6-.7,1.5-.7,2.1-.7,0-.6,0-1.5.8-2.1.7-.6,1.6-.4,2.2-.3.1-.6.4-1.5,1.2-1.9.8-.4,1.6-.1,2.2,0,.2-.6.6-1.4,1.4-1.7.9-.3,1.6.1,2.2.4.3-.5.8-1.3,1.7-1.5.9-.2,1.6.3,2.1.7.4-.5.9-1.2,1.8-1.2.9,0,1.5.5,2,1,.4-.4,1.1-1,2-1,.9,0,1.5.7,1.8,1.2.5-.4,1.2-.9,2.1-.7.9.2,1.4.9,1.7,1.5.5-.3,1.3-.7,2.2-.4.9.3,1.2,1.1,1.4,1.7.6-.2,1.4-.5,2.2,0,.8.4,1,1.3,1.1,1.9.6-.1,1.5-.3,2.2.3.7.6.8,1.4.8,2.1.6,0,1.5,0,2.1.7.6.7.5,1.6.5,2.2.6,0,1.5.2,2,1,.5.8.3,1.6,0,2.2.6.2,1.4.5,1.8,1.3.4.8,0,1.6-.3,2.2.6.3,1.3.7,1.5,1.6.2.9-.3,1.6-.6,2.1.5.4,1.2.9,1.3,1.8,0,.9-.5,1.5-.9,2,.5.4,1.1,1.1,1,2,0,.1,0,.2,0,.3,1,1.1,1.7,2.5,1.7,4.1,0,3.2-2.6,5.9-5.9,5.9s-.5,0-.7,0c-1.6,7.2-6.9,13.1-13.7,15.5v4.3c0,.1,0,3.5,3.9,3.5h8.2c5.8,0,9.5,6.6,10.8,11.7,9.8-8.5,16.1-21,16.1-35,0-25.5-20.7-46.1-46.1-46.1Z"/>
  <path class="st0" d="M67.9,79.7c-1.4.3-2.9.5-4.4.5s-3-.2-4.4-.5v3.5c0,1.2-.4,2.8-1.4,4,1.3,1.8,3.5,2.9,5.8,2.9s4.5-1.1,5.8-2.9c-1-1.2-1.4-2.8-1.4-4v-3.5Z"/>
  <path class="st0" d="M82.7,89.6h-8.2c-1.2,0-2.2-.2-3-.6-1.9,2.5-4.8,4-8,4s-6.2-1.5-8-4c-.8.4-1.8.6-3,.6h-8.2c-4.5,0-7.7,6.7-8.4,10.8,7.7,5.8,17.3,9.2,27.7,9.2s19.9-3.4,27.7-9.2c-.8-4.1-3.9-10.8-8.4-10.8Z"/>
  <path class="st0" d="M41.7,51.7c0,0,.1,0,.2,0,.9,0,1.8.2,2.6.6.5-1.4,1-2.7,1.4-4,1-2.9,3.3-4.5,6.6-4.5h22.1c3.3,0,5.6,1.6,6.6,4.5.4,1.2.9,2.6,1.4,4,.8-.4,1.7-.6,2.6-.6s.2,0,.2,0c0-.1,0-.3,0-.4,0-.8.4-1.3.8-1.8-.5-.3-1-.8-1.1-1.6-.1-.8.2-1.4.6-1.9-.5-.3-1.1-.7-1.4-1.4-.2-.7,0-1.4.3-1.9-.6-.2-1.2-.5-1.6-1.1-.4-.7-.2-1.4,0-1.9-.6,0-1.3-.3-1.7-.9-.5-.6-.4-1.3-.4-1.9-.6,0-1.3,0-1.9-.6-.6-.5-.7-1.2-.7-1.8-.6.1-1.3.2-1.9-.2-.6-.4-.9-1.1-1-1.7-.6.2-1.2.4-1.9,0-.7-.3-1-1-1.2-1.5-.5.3-1.2.6-1.9.4-.7-.2-1.2-.8-1.5-1.3-.5.4-1.1.7-1.9.6-.8-.1-1.3-.6-1.6-1.1-.4.4-1,.9-1.8.9-.8,0-1.3-.5-1.8-.9-.4.5-.9,1-1.6,1.1-.8.1-1.4-.3-1.9-.6-.3.5-.7,1.1-1.5,1.3-.7.2-1.4,0-1.9-.4-.2.5-.5,1.2-1.2,1.5-.7.3-1.4.1-2,0-.1.6-.3,1.3-1,1.7-.6.4-1.4.3-1.9.2,0,.6-.1,1.3-.7,1.8-.6.5-1.3.6-1.9.5,0,.6,0,1.3-.4,1.9-.5.6-1.2.8-1.7.9.2.6.3,1.3,0,1.9-.4.7-1,1-1.6,1.1.3.5.5,1.2.3,1.9-.2.7-.8,1.1-1.4,1.4.3.5.7,1.1.6,1.9-.1.8-.7,1.2-1.1,1.6.4.4.9,1,.9,1.8,0,.2,0,.3,0,.4Z"/>
  <path class="st1" d="M69.5,69.2c0-.8-.6-1.4-1.4-1.4s-1.1.4-1.3.9c-.6.3-2.2.7-3.3.7s-2.7-.4-3.3-.7c-.2-.5-.7-.9-1.3-.9s-1.4.6-1.4,1.4c0,2.8,5.9,3,6,3s6-.2,6-3Z"/>
  <path class="st1" d="M82.7,86.8h-8.2c-3.8,0-3.9-3.4-3.9-3.5v-4.3c6.9-2.5,12.1-8.3,13.7-15.5.2,0,.5,0,.7,0,3.2,0,5.9-2.6,5.9-5.9s-.6-3-1.7-4.1c0,0,0-.2,0-.3,0-.9-.6-1.5-1-2,.4-.4,1-1.1.9-2,0-.9-.8-1.4-1.3-1.8.4-.5.8-1.2.6-2.1-.2-.9-1-1.3-1.5-1.6.3-.6.6-1.4.3-2.2-.4-.8-1.2-1.1-1.8-1.3.2-.6.4-1.5,0-2.2-.5-.8-1.4-.9-2-1,0-.6.2-1.5-.5-2.2-.6-.7-1.5-.7-2.1-.7,0-.6,0-1.5-.8-2.1-.7-.6-1.6-.4-2.2-.3-.1-.6-.3-1.5-1.1-1.9-.8-.4-1.6-.2-2.2,0-.2-.6-.6-1.4-1.4-1.7-.9-.3-1.6,0-2.2.4-.3-.5-.8-1.3-1.7-1.5-.9-.2-1.6.3-2.1.7-.4-.5-.9-1.2-1.8-1.2-.9,0-1.5.5-2,1-.4-.4-1.1-1-2-1-.9,0-1.5.7-1.8,1.2-.5-.4-1.2-.9-2.1-.7-.9.2-1.3.9-1.7,1.5-.5-.3-1.3-.7-2.2-.4-.9.3-1.2,1.1-1.4,1.7-.6-.2-1.4-.5-2.2,0-.8.4-1,1.3-1.2,1.9-.6-.1-1.5-.3-2.2.3-.7.6-.8,1.4-.8,2.1-.6,0-1.5,0-2.1.7-.6.7-.5,1.6-.5,2.2-.6,0-1.5.2-2,1-.5.8-.3,1.6,0,2.2-.6.2-1.4.5-1.8,1.4-.3.8,0,1.6.3,2.2-.6.3-1.3.7-1.5,1.6-.2.9.3,1.6.7,2.1-.5.4-1.2.9-1.3,1.8,0,.9.5,1.5,1,2-.4.4-1,1.1-1,2,0,0,0,.1,0,.2-1.1,1.1-1.7,2.5-1.7,4.2,0,3.2,2.6,5.9,5.9,5.9s.5,0,.7,0c1.6,7.2,6.9,13.1,13.7,15.5v4.3c0,.1,0,3.5-3.9,3.5h-8.2c-5.8,0-9.5,6.6-10.8,11.7.8.7,1.6,1.3,2.4,2,.8-4.1,3.9-10.8,8.4-10.8h8.2c1.2,0,2.2-.2,3-.6,1.9,2.5,4.8,4,8,4s6.1-1.5,8-4c.8.4,1.8.6,3,.6h8.2c4.5,0,7.7,6.7,8.4,10.8.8-.6,1.6-1.3,2.4-2-1.3-5-5-11.7-10.8-11.7ZM42,47.9c.1-.8-.3-1.4-.6-1.9.5-.3,1.1-.7,1.4-1.4.2-.7,0-1.4-.3-1.9.6-.2,1.2-.5,1.6-1.1.3-.7.2-1.4,0-1.9.6,0,1.3-.3,1.7-.9.5-.6.4-1.3.4-1.9.6,0,1.3,0,1.9-.5.6-.5.7-1.2.7-1.8.6.1,1.3.2,1.9-.2.6-.4.9-1.1,1-1.7.5.2,1.2.4,2,0,.7-.3,1-1,1.2-1.5.5.3,1.2.6,1.9.4.8-.2,1.2-.8,1.5-1.3.5.4,1.1.7,1.9.6.8-.1,1.3-.6,1.6-1.1.4.4,1,.9,1.8.9.8,0,1.3-.5,1.8-.9.4.5.9,1,1.6,1.1.8.1,1.4-.3,1.9-.6.3.5.7,1.1,1.5,1.3.7.2,1.4,0,1.9-.4.2.5.5,1.2,1.2,1.5.7.3,1.4.1,1.9,0,.1.6.3,1.3,1,1.7.6.4,1.4.3,1.9.2,0,.6.1,1.3.7,1.8.6.5,1.3.6,1.9.6,0,.6,0,1.3.4,1.9.5.6,1.2.8,1.7.9-.2.6-.3,1.3,0,1.9.4.7,1,1,1.6,1.1-.3.5-.5,1.2-.3,1.9.2.7.8,1.1,1.4,1.4-.3.5-.7,1.1-.6,1.9.1.8.7,1.2,1.1,1.6-.4.4-.9,1-.8,1.8,0,.1,0,.3,0,.4,0,0-.2,0-.2,0-.9,0-1.8.2-2.6.6-.5-1.4-1-2.7-1.4-4-1-2.9-3.3-4.5-6.6-4.5h-22.1c-3.3,0-5.6,1.6-6.6,4.5-.4,1.2-.9,2.6-1.4,4-.8-.4-1.7-.6-2.6-.6s-.1,0-.2,0c0-.1,0-.3,0-.4,0-.8-.5-1.3-.9-1.8.5-.4,1-.8,1.1-1.6ZM44.8,58.7c0-.8-.6-1.4-1.4-1.4s-1.4.6-1.4,1.4,0,1.2,0,1.9c0,0-.2,0-.3,0-1.7,0-3.1-1.4-3.1-3.1s1.4-3.1,3.1-3.1,1.9.5,2.1.8c0,0,0,0,0,0,0,0,.1.1.2.2,0,0,.2.1.2.2,0,0,0,0,.1,0,0,0,0,0,.1,0,0,0,.2,0,.3,0,0,0,.2,0,.3,0,0,0,.2,0,.3,0,0,0,.2,0,.3-.1,0,0,0,0,.1,0,0,0,0,0,0,0,0,0,.1-.1.2-.2,0,0,.1-.2.2-.2,0,0,0,0,0-.1.8-2.1,1.5-4.1,2.1-5.8.6-1.7,1.8-2.6,3.9-2.6h22.1c2.1,0,3.3.8,3.9,2.6.6,1.8,1.2,3.7,2.1,5.8,0,0,0,0,0,.1,0,0,0,0,0,.1,0,.1.2.2.3.3,0,0,0,0,0,0,0,0,0,0,0,0,.1,0,.3.2.5.2,0,0,0,0,.1,0,0,0,.1,0,.2,0s0,0,.1,0c0,0,.2,0,.2,0,0,0,0,0,.1,0,0,0,0,0,.1,0,0,0,.2,0,.2-.2,0,0,.1-.1.2-.2,0,0,0,0,0,0,.2-.3,1.2-.8,2.1-.8,1.7,0,3.1,1.4,3.1,3.1s-1.4,3.1-3.1,3.1-.2,0-.3,0c0-.6,0-1.2,0-1.9s-.6-1.4-1.4-1.4-1.4.6-1.4,1.4c0,10.3-8.4,18.6-18.6,18.6s-18.6-8.4-18.6-18.6ZM63.5,90.2c-2.3,0-4.5-1.1-5.8-2.9,1-1.2,1.4-2.8,1.4-4v-3.5c1.4.3,2.9.5,4.4.5s3-.2,4.4-.5v3.5c0,1.2.4,2.8,1.4,4-1.3,1.8-3.5,2.9-5.8,2.9Z"/>
</svg>