<?xml version="1.0" encoding="UTF-8"?>
<svg id="Layer_1" xmlns="http://www.w3.org/2000/svg" version="1.1" viewBox="0 0 126.9 126.9">
  <!-- Generator: Adobe Illustrator 30.3.0, SVG Export Plug-In . SVG Version: 2.1.3 Build 182)  -->
  <defs>
    <style>
      .st0 {
        fill: none;
      }

      .st1 {
        fill: #5c5a5d;
      }
    </style>
  </defs>
  <path class="st0" d="M82.8,88.9h-8.2c-1.2,0-2.2-.2-3-.6-1.9,2.5-4.8,4-8,4s-6.2-1.5-8-4c-.8.4-1.8.6-3,.6h-8.2c-4.6,0-7.9,7.1-8.5,11.2,7.7,5.8,17.3,9.2,27.7,9.2s20-3.4,27.7-9.2c-.6-4.1-3.8-11.2-8.5-11.2Z"/>
  <path class="st0" d="M91,84.1c.5-1.1.3-2.4-.7-3.6-.4-.4-.4-1-.2-1.5.2-.5.7-.8,1.3-.8,2,0,3.1-1.6,3.4-3.2.3-1.4,0-3.2-1.2-3.7-.6-.2-.9-.7-.9-1.3,0-.6.4-1.1,1-1.3,2.4-.8,2.5-3.2,2.5-3.9,0-1.8-1-3.3-2.3-3.6-.5-.1-.9-.5-1-1.1-.1-.5,0-1.1.5-1.4,1.4-1.1,2-2.8,1.6-4.5-.4-1.6-1.5-2.7-2.9-3-.4,0-.8-.4-1-.7-.2-.4-.2-.8,0-1.2.8-1.7.8-3.5,0-4.7-.8-1.3-2.4-2-4.4-2-.5,0-.9-.3-1.2-.7-.3-.4-.3-.9,0-1.4.7-1.4.8-2.8.2-3.8-.7-1.1-2.2-1.8-4.3-1.8-.4,0-.8-.2-1.1-.5-.3-.3-.4-.7-.3-1.1.2-1.2-.3-2.4-1.3-3.3-1.4-1.1-3.4-1.4-5.2-.6-.4.1-.8.1-1.1,0-.3-.2-.6-.5-.7-.8-.4-1.1-1.3-1.9-2.6-2.2-1.5-.4-3,0-4.2,1.1-.5.5-1.4.5-1.9,0-1.2-1.1-3-1.6-4.9-1.2-1.8.3-3.3,1.4-4,2.7-.3.6-1,.9-1.7.7-2-.7-3.9-.5-5.3.5-1.3.9-2.1,2.5-2.2,4.4,0,.4-.2.8-.5,1.1-.3.3-.8.4-1.2.3-1.6-.4-3-.1-3.9.7-.9.9-1.2,2.5-.8,4.3,0,.4,0,.8-.2,1.1-.2.3-.5.5-.9.6-1.6.3-2.8,1.4-3.2,2.9-.4,1.5,0,3.1,1,4.1.4.4.6.9.4,1.5-.2.5-.6.9-1.2,1-1.5.2-2.4,1.6-2.7,3-.3,1.4.1,3.2,1.9,4.1.5.3.8.9.7,1.4,0,.6-.5,1-1.1,1.2-.9.2-1.2,1.3-1.2,2.3,0,1.8,1,4,3,4.5.5.1,1,.6,1,1.1,0,.6-.2,1.1-.6,1.4-1.7,1.1-2,3.3-1.5,5,.2.6.9,2.1,2.5,2,.6,0,1.1.3,1.4.8.2.5.1,1.2-.3,1.6-1.1,1.1-1.5,2.5-.9,3.8.5,1.3,1.9,2.6,4.4,2.7,1.1-.6,2.4-1,3.7-1h8.2c3.8,0,3.9-3.4,3.9-3.5v-4.3c-6.9-2.5-12.1-8.3-13.7-15.5-.2,0-.5,0-.7,0-3.2,0-5.9-2.6-5.9-5.9s2.6-5.9,5.9-5.9,3.2.7,4.2,1.7c1.4-.2,2.5-.7,2.9-1.5.6-1,.4-2.5-.6-4.2-.3-.6-.2-1.3.3-1.8.5-.4,1.3-.4,1.8,0,1.2,1.1,2.7,1.4,3.8.9,1.2-.5,2-1.9,2.1-3.7,0-.6.5-1.2,1.1-1.3.6-.1,1.2.1,1.6.7.5.9,1.6,1.4,3.1,1.6,2,.2,4.2-.6,5.2-1.9.4-.5,1.1-.7,1.7-.4.6.3.9,1,.7,1.6-.3,1.1.7,2.7,2.1,3.5.6.4,1.8.8,2.7,0,.5-.4,1.2-.5,1.7-.2.5.3.8,1,.6,1.6-.3,1.1-.2,2.1.5,3,.7,1,2.1,1.7,3.7,2,.9-.9,2.6-1.6,4-1.6,3.2,0,5.9,2.6,5.9,5.9s-2.6,5.9-5.9,5.9-.5,0-.7,0c-1.6,7.2-6.9,13.1-13.7,15.5v4.3c0,.1,0,3.5,3.9,3.5h8.2c1.2,0,2.2.3,3.2.8,2.3,0,4.3-1.1,5-2.7Z"/>
  <path class="st0" d="M43.5,56.6c.8,0,1.4.6,1.4,1.4,0,10.3,8.4,18.6,18.6,18.6s18.6-8.4,18.6-18.6.6-1.4,1.4-1.4,1.4.6,1.4,1.4,0,1.2,0,1.9c0,0,.2,0,.3,0,1.7,0,3.1-1.4,3.1-3.1s-1.4-3.1-3.1-3.1-.2,0-.3,0c0,.1,0,.2,0,.4,0,.8-.6,1.4-1.4,1.4-3.7,0-6.8-1.2-8.4-3.4-.6-.9-1-1.8-1.2-2.9-1.1.1-2.4-.1-3.5-.8-1.3-.8-2.6-2.1-3.2-3.6-1.6.9-3.5,1.3-5.4,1.1-1.2,0-2.3-.4-3.2-.9-.6,1.6-1.7,2.8-3.2,3.5-1.1.5-2.3.6-3.4.4.2,1.3,0,2.6-.6,3.6-.8,1.4-2.6,3-6.9,3s-1.4-.6-1.4-1.4,0,0,0-.1c-.4-.2-.8-.3-1.2-.3-1.7,0-3.1,1.4-3.1,3.1s1.4,3.1,3.1,3.1.2,0,.3,0c0-.6,0-1.2,0-1.9s.6-1.4,1.4-1.4ZM60.6,67.1c.7,0,1.3.5,1.4,1.2.2.2.9.4,1.6.4s1.4-.3,1.6-.4c.1-.7.7-1.2,1.4-1.2s1.4.6,1.4,1.4c0,1.9-2.2,3-4.4,3s-4.4-1.1-4.4-3,.6-1.4,1.4-1.4Z"/>
  <path class="st0" d="M67.9,79c-1.4.3-2.9.5-4.4.5s-3-.2-4.4-.5v3.5c0,1.2-.4,2.8-1.4,4,1.3,1.8,3.5,2.9,5.8,2.9s4.5-1.1,5.8-2.9c-1-1.2-1.4-2.8-1.4-4v-3.5Z"/>
  <path class="st0" d="M63.6,16.3c-25.7,0-46.5,20.8-46.5,46.5s6.3,26.8,16.3,35.3c.7-2.8,2.2-6.3,4.4-8.8-1.9-.7-3.5-2.1-4.2-3.9-.7-1.6-.6-3.4.2-5-1.3-.6-2.3-1.8-2.8-3.5-.7-2-.6-4.7.9-6.7-2-1.5-3.1-4-3-6.3,0-1.5.5-2.8,1.3-3.7-1.4-1.5-2-3.6-1.6-5.8.4-2,1.5-3.6,3-4.5-.8-1.5-1-3.4-.5-5.2.6-2.1,2.1-3.8,4.1-4.5-.2-2.3.4-4.3,1.8-5.6,1.2-1.2,3-1.8,4.9-1.7.4-2.1,1.5-3.9,3.2-5.1,1.9-1.3,4.3-1.7,6.7-1.2,1.2-1.6,3.1-2.8,5.3-3.2,2.3-.4,4.5,0,6.3,1.2,1.7-1.1,3.8-1.5,5.8-1,1.7.4,3.1,1.4,4,2.8,2.4-.6,5,0,6.8,1.4,1.4,1.1,2.2,2.7,2.4,4.4,2.4.3,4.2,1.4,5.3,3,.8,1.3,1,3,.6,4.7,2.1.4,3.8,1.5,4.8,3.1,1.1,1.7,1.4,3.8.8,6,1.7.9,3.1,2.5,3.5,4.6.5,2.1,0,4.2-1.1,5.9,1.4,1.2,2.3,3.1,2.4,5.2,0,2.3-.8,4.3-2.3,5.6,1,1.3,1.4,3.2,1,5.3-.4,2.1-1.7,4.2-3.9,5.1.6,1.5.6,3.2,0,4.7-.8,1.8-2.4,3.1-4.5,3.8,2.4,2.5,3.9,6.1,4.7,9,10-8.5,16.3-21.2,16.3-35.3,0-25.7-20.8-46.5-46.5-46.5Z"/>
  <path class="st1" d="M63.6,71.5c2.2,0,4.4-1.1,4.4-3s-.6-1.4-1.4-1.4-1.3.5-1.4,1.2c-.2.2-.9.4-1.6.4s-1.4-.3-1.6-.4c-.1-.7-.7-1.2-1.4-1.2s-1.4.6-1.4,1.4c0,1.9,2.2,3,4.4,3Z"/>
  <path class="st1" d="M93.6,85.3c.7-1.5.7-3.1,0-4.7,2.2-.9,3.5-3,3.9-5.1.4-2.1,0-4-1-5.3,1.6-1.3,2.4-3.3,2.3-5.6,0-2.2-1-4.1-2.4-5.2,1.2-1.7,1.7-3.8,1.1-5.9-.5-2.1-1.8-3.7-3.5-4.6.6-2.2.3-4.3-.8-6-1-1.6-2.8-2.7-4.8-3.1.4-1.7.2-3.3-.6-4.7-1-1.7-2.9-2.7-5.3-3-.1-1.7-1-3.2-2.4-4.4-1.8-1.5-4.4-2-6.8-1.4-.9-1.4-2.3-2.4-4-2.8-2-.5-4.1,0-5.8,1-1.8-1.2-4-1.6-6.3-1.2-2.2.4-4.1,1.6-5.3,3.2-2.4-.5-4.8-.1-6.7,1.2-1.7,1.2-2.8,3-3.2,5.1-2-.1-3.7.5-4.9,1.7-1.4,1.3-2,3.4-1.8,5.6-2,.8-3.5,2.4-4.1,4.5-.5,1.8-.3,3.7.5,5.2-1.5.9-2.6,2.5-3,4.5-.4,2.2.2,4.2,1.6,5.8-.8.9-1.3,2.2-1.3,3.7,0,2.3,1,4.8,3,6.3-1.5,2-1.6,4.7-.9,6.7.5,1.6,1.6,2.9,2.8,3.5-.8,1.6-.8,3.3-.2,5,.7,1.8,2.3,3.2,4.2,3.9-2.2,2.5-3.7,5.9-4.4,8.8.8.7,1.6,1.3,2.5,2,.6-4.1,3.8-11.2,8.5-11.2h8.2c1.2,0,2.2-.2,3-.6,1.9,2.5,4.8,4,8,4s6.2-1.5,8-4c.8.4,1.8.6,3,.6h8.2c4.6,0,7.9,7.1,8.5,11.2.8-.6,1.7-1.3,2.5-2-.7-2.9-2.3-6.5-4.7-9,2-.7,3.7-2,4.5-3.8ZM63.6,89.5c-2.3,0-4.5-1.1-5.8-2.9,1-1.2,1.4-2.8,1.4-4v-3.5c1.4.3,2.9.5,4.4.5s3-.2,4.4-.5v3.5c0,1.2.4,2.8,1.4,4-1.3,1.8-3.5,2.9-5.8,2.9ZM42.2,59.9c0,0-.2,0-.3,0-1.7,0-3.1-1.4-3.1-3.1s1.4-3.1,3.1-3.1.9.1,1.2.3c0,0,0,0,0,.1,0,.8.6,1.4,1.4,1.4,4.2,0,6.1-1.6,6.9-3,.6-1,.8-2.3.6-3.6,1.2.2,2.3.1,3.4-.4,1.5-.6,2.6-1.9,3.2-3.5.9.5,2,.8,3.2.9,1.9.2,3.8-.3,5.4-1.1.6,1.5,1.8,2.8,3.2,3.6,1.2.7,2.4.9,3.5.8.1,1,.5,2,1.2,2.9,1.6,2.1,4.7,3.4,8.4,3.4s1.4-.6,1.4-1.4,0-.2,0-.4c0,0,.2,0,.3,0,1.7,0,3.1,1.4,3.1,3.1s-1.4,3.1-3.1,3.1-.2,0-.3,0c0-.6,0-1.2,0-1.9s-.6-1.4-1.4-1.4-1.4.6-1.4,1.4c0,10.3-8.4,18.6-18.6,18.6s-18.6-8.4-18.6-18.6-.6-1.4-1.4-1.4-1.4.6-1.4,1.4,0,1.2,0,1.9ZM86,86.8c-1-.5-2.1-.8-3.2-.8h-8.2c-3.8,0-3.9-3.4-3.9-3.5v-4.3c6.9-2.5,12.1-8.3,13.7-15.5.2,0,.5,0,.7,0,3.2,0,5.9-2.6,5.9-5.9s-2.6-5.9-5.9-5.9-3.1.6-4,1.6c-1.7-.3-3-1-3.7-2-.7-.9-.8-1.9-.5-3,.2-.6,0-1.3-.6-1.6-.5-.3-1.2-.2-1.7.2-.9.9-2.1.4-2.7,0-1.4-.8-2.4-2.4-2.1-3.5.2-.6-.1-1.3-.7-1.6-.6-.3-1.3-.1-1.7.4-1,1.3-3.2,2-5.2,1.9-1.4-.1-2.6-.7-3.1-1.6-.3-.5-.9-.8-1.6-.7-.6.1-1,.7-1.1,1.3,0,1.8-.8,3.2-2.1,3.7-1.2.5-2.6.2-3.8-.9-.5-.4-1.3-.4-1.8,0-.5.4-.7,1.2-.3,1.8,1,1.7,1.2,3.2.6,4.2-.5.8-1.5,1.3-2.9,1.5-.9-1-2.6-1.7-4.2-1.7-3.2,0-5.9,2.6-5.9,5.9s2.6,5.9,5.9,5.9.5,0,.7,0c1.6,7.2,6.9,13.1,13.7,15.5v4.3c0,.1,0,3.5-3.9,3.5h-8.2c-1.4,0-2.6.4-3.7,1-2.4-.1-3.9-1.4-4.4-2.7-.5-1.3-.2-2.7.9-3.8.4-.4.6-1,.3-1.6-.2-.5-.8-.9-1.4-.8-1.6.1-2.3-1.4-2.5-2-.6-1.7-.2-3.9,1.5-5,.5-.3.7-.9.6-1.4,0-.6-.5-1-1-1.1-2-.5-3-2.6-3-4.5,0-1,.3-2.1,1.2-2.3.6-.1,1-.6,1.1-1.2,0-.6-.2-1.2-.7-1.4-1.8-1-2.1-2.8-1.9-4.1.2-1.3,1.2-2.8,2.7-3,.5,0,1-.5,1.2-1,.2-.5,0-1.1-.4-1.5-1-.9-1.5-2.6-1-4.1.4-1.5,1.6-2.6,3.2-2.9.4,0,.7-.3.9-.6.2-.3.3-.7.2-1.1-.4-1.8,0-3.4.8-4.3.9-.8,2.2-1.1,3.9-.7.4,0,.8,0,1.2-.3.3-.3.5-.7.5-1.1,0-1.9.8-3.5,2.2-4.4,1.4-1,3.4-1.2,5.3-.5.7.2,1.4,0,1.7-.7.7-1.3,2.2-2.4,4-2.7,1.9-.4,3.6,0,4.9,1.2.5.5,1.4.5,1.9,0,1.1-1.1,2.7-1.5,4.2-1.1,1.2.3,2.2,1.1,2.6,2.2.1.4.4.7.7.8.3.2.7.2,1.1,0,1.9-.7,3.9-.5,5.2.6,1,.9,1.5,2,1.3,3.3,0,.4,0,.8.3,1.1.3.3.7.5,1.1.5,2.1,0,3.6.7,4.3,1.8.6,1,.5,2.3-.2,3.8-.2.4-.2,1,0,1.4.3.4.7.7,1.2.7,2,0,3.6.7,4.4,2,.8,1.3.8,3,0,4.7-.2.4-.2.8,0,1.2.2.4.6.7,1,.7,1.4.3,2.5,1.4,2.9,3,.4,1.7-.2,3.4-1.6,4.5-.4.3-.6.9-.5,1.4.1.5.5.9,1,1.1,1.2.3,2.2,1.8,2.3,3.6,0,.7,0,3.1-2.5,3.9-.6.2-1,.7-1,1.3,0,.6.4,1.1.9,1.3,1.2.4,1.5,2.2,1.2,3.7-.3,1.6-1.3,3.2-3.4,3.2-.6,0-1.1.3-1.3.8-.2.5-.2,1.1.2,1.5,1,1.2,1.3,2.4.7,3.6-.7,1.6-2.7,2.6-5,2.7Z"/>
</svg>